<svg width="476" height="476" viewBox="0 0 476 476" fill="none" xmlns="http://www.w3.org/2000/svg">
<g clip-path="url(#clip0_802_12044)">
<path d="M296.906 421.956C296.906 427.64 279.134 432.248 257.212 432.248C235.29 432.248 217.52 427.64 217.52 421.956C217.52 416.272 235.29 411.665 257.212 411.665C279.134 411.665 296.906 416.272 296.906 421.956Z" fill="#CFD7DB" fill-opacity="0.2"/>
<mask id="mask0_802_12044" style="mask-type:luminance" maskUnits="userSpaceOnUse" x="0" y="-24" width="476" height="477">
<path d="M476 -23.4341H0V452.566H476V-23.4341Z" fill="white"/>
</mask>
<g mask="url(#mask0_802_12044)">
<path d="M173.97 262.023C180.253 265.958 176.361 273.526 167.713 282.504C157.385 293.225 130.555 304.191 115.532 294.703L115.527 294.701C114.159 293.836 112.891 292.805 111.739 291.586C97.9497 276.981 157.021 258.522 165.306 259.502C169.23 259.967 172.067 260.828 173.97 262.023Z" fill="#5596FE"/>
<path d="M173.97 262.022C180.252 265.958 176.36 273.526 167.713 282.504C157.384 293.225 130.555 304.192 115.531 294.703C131.568 293.997 158.792 288.604 173.97 262.022Z" fill="#5596FE"/>
<path d="M124.325 276.946C128.673 275.074 136.153 272.66 136.906 274.108C137.674 275.588 131.447 281.135 124.221 283.862C119.287 285.723 112.981 286.611 112.441 285.241C111.829 283.691 118.654 279.386 124.325 276.946Z" fill="#7EEEF0"/>
<path d="M339.968 246.383C328.724 254.485 320.033 257.021 317.986 247.034C317.635 245.32 317.477 243.234 317.537 240.745C317.742 232.403 344.376 176.544 356.885 192.263C360.116 196.326 361.426 201.268 361.367 206.529C361.194 221.627 349.741 239.343 339.968 246.383Z" fill="#5596FE"/>
<path d="M339.969 246.382C328.725 254.485 320.034 257.02 317.986 247.034C325.622 244.979 340.683 236.872 361.368 206.528C361.195 221.627 349.742 239.342 339.969 246.382Z" fill="#00A2E8"/>
<path d="M339.456 212.799C334.84 220.96 326.239 234.423 324.692 233.601C323.296 232.859 327.445 220.396 335.011 209.65C339.225 203.665 344.939 197.588 345.942 198.274C347.19 199.128 340.893 210.26 339.456 212.799Z" fill="#C4E0F9"/>
<path d="M310.059 285.875C310.059 316.021 288.91 351.431 255.308 351.431C234.486 351.431 217.351 338.684 207.335 321.641C201.175 311.177 197.701 299.093 197.701 287.347C197.701 256.463 231.409 257.934 252.77 257.934C276.198 257.934 304.01 256.14 309.196 277.958C309.764 280.311 310.059 282.941 310.059 285.875Z" fill="#00B1F2"/>
<path d="M310.058 285.875C310.058 316.02 288.909 351.431 255.307 351.431C234.485 351.431 217.35 338.683 207.334 321.64C228.202 331.463 287.645 351.809 309.195 277.958C309.763 280.311 310.058 282.94 310.058 285.875Z" fill="#5596FE"/>
<path d="M209.336 275.373C204.971 282.49 208.058 292.618 215.553 296.594C223.475 300.797 234.253 297.029 237.199 288.675C239.997 280.739 234.605 271.845 226.879 269.35C220.684 267.349 212.965 269.455 209.336 275.373Z" fill="#C4E0F9"/>
<mask id="mask1_802_12044" style="mask-type:luminance" maskUnits="userSpaceOnUse" x="-19" y="-41" width="517" height="517">
<path d="M455.966 -40.5701L-18.2227 0.916016L23.2635 475.105L497.452 433.619L455.966 -40.5701Z" fill="white"/>
</mask>
<g mask="url(#mask1_802_12044)">
<path d="M185.795 198.037C183.525 196.387 181.646 194.363 180.21 192.1C176.9 186.91 175.894 180.478 177.731 174.513C179.597 168.459 184.16 163.637 189.981 161.247C191.625 160.567 193.375 160.08 195.193 159.821C203.055 182.78 185.795 198.037 185.795 198.037Z" fill="#5596FE"/>
<path d="M185.794 198.038C183.524 196.387 181.645 194.363 180.208 192.1C181.954 187.513 183.668 182.654 185.306 177.529C187.11 171.882 188.655 166.441 189.98 161.248C191.624 160.568 193.373 160.081 195.191 159.822C192.059 172.561 188.926 185.299 185.794 198.038Z" fill="#5596FE"/>
<path d="M306.198 203.416C308.729 233.256 242.625 253.685 208.168 240.849C198.595 237.283 191.465 231.146 188.927 221.934C177.252 179.563 199.575 135.556 232.387 130.374C244.282 128.496 258.969 130.843 272.127 139.102C288.991 149.672 303.364 169.934 306.198 203.416Z" fill="#5596FE"/>
<path d="M284.529 180.13C285.464 186.05 279.541 190.721 271.506 194.209C263.044 197.885 252.24 200.25 244.636 201.376C233.751 202.987 212.489 204.411 203.842 198.719C201.814 197.386 200.481 195.658 200.134 193.457C199.121 187.044 200.875 180.817 204.531 175.928C208.187 171.044 213.747 167.504 220.341 166.463L256.986 160.676C264.652 159.466 272.029 161.902 277.257 166.672C281.028 170.112 283.681 174.761 284.529 180.13Z" fill="#00458F"/>
<path d="M284.529 180.129C285.464 186.049 279.541 190.721 271.506 194.209C263.044 197.885 252.24 200.249 244.636 201.375C233.751 202.987 212.49 204.411 203.842 198.719C225.268 194.672 261.305 185.361 277.257 166.671C281.028 170.112 283.681 174.76 284.529 180.129Z" fill="#003B88"/>
<path d="M306.199 203.416C308.729 233.255 242.626 253.685 208.169 240.849C228.007 241.004 286.669 238.962 292.644 209.601C297.784 184.351 281.75 154.276 272.128 139.102C288.992 149.671 303.364 169.934 306.199 203.416Z" fill="#5596FE"/>
<path d="M199.165 165.376C201.277 167.405 211.263 160.882 217.642 154.431C223.756 148.247 229.551 139.102 227.634 137.076C225.931 135.276 218.448 139.406 213.875 142.847C203.641 150.548 196.864 163.164 199.165 165.376Z" fill="#C4E0F9"/>
<path d="M190.751 213.759C192.252 221.6 198.249 228.321 200.117 227.503C202.077 226.645 199.758 217.363 197.999 212.337C197.493 210.895 194.404 202.07 192.285 202.445C190.619 202.739 189.78 208.68 190.751 213.759Z" fill="#C4E0F9"/>
<path d="M276.249 176.321C277.18 182.211 273.158 187.741 267.268 188.671C262.714 189.39 258.378 187.156 256.214 183.384C255.576 182.274 255.125 181.03 254.914 179.69C253.983 173.799 258.005 168.27 263.899 167.339C268.236 166.655 272.374 168.653 274.624 172.106C275.437 173.343 276.004 174.767 276.249 176.321Z" fill="#2E2A6C"/>
<path fill-rule="evenodd" clip-rule="evenodd" d="M264.64 167.246C268.698 166.89 272.505 168.854 274.624 172.105C275.437 173.343 276.004 174.767 276.25 176.321C277.179 182.211 273.158 187.741 267.268 188.671C267.015 188.711 266.763 188.742 266.512 188.764C262.239 189.138 258.258 186.947 256.213 183.384C255.576 182.274 255.125 181.031 254.913 179.69C253.983 173.799 258.005 168.27 263.899 167.339C264.151 167.3 264.39 167.268 264.64 167.246ZM264.493 165.408C264.199 165.434 263.903 165.47 263.611 165.516C260.274 166.044 257.341 167.838 255.354 170.569C253.368 173.3 252.563 176.642 253.09 179.978C253.332 181.508 253.845 182.964 254.613 184.302C257.055 188.557 261.789 191.03 266.673 190.602C266.967 190.577 267.263 190.54 267.556 190.494C270.891 189.967 273.823 188.173 275.809 185.442C277.795 182.71 278.599 179.369 278.072 176.033C277.791 174.252 277.15 172.59 276.166 171.092C273.618 167.181 269.143 165.001 264.493 165.408Z" fill="#5596FE"/>
<path d="M274.61 172.086C272.149 182.341 262.227 183.614 256.241 183.412C255.6 182.304 255.145 181.063 254.929 179.723C253.979 173.835 257.982 168.293 263.873 167.342C268.207 166.643 272.349 168.642 274.61 172.086Z" fill="#00397F"/>
<path d="M264.558 174.538C264.866 176.494 263.531 178.329 261.576 178.638C259.62 178.947 257.784 177.612 257.476 175.657C257.167 173.701 258.502 171.865 260.458 171.557C262.413 171.248 264.249 172.582 264.558 174.538Z" fill="#97CEFF"/>
<path d="M274.274 178.755C274.915 179.054 274.712 182.893 272.297 184.732C270.151 186.365 266.897 185.931 266.716 185.259C266.584 184.765 268.173 184.373 270.609 182.316C273.174 180.151 273.827 178.548 274.274 178.755Z" fill="#C4E0F9"/>
<path d="M228.931 183.792C229.861 189.683 225.84 195.213 219.949 196.143C215.395 196.862 211.06 194.627 208.895 190.855C208.258 189.745 207.807 188.502 207.595 187.162C206.665 181.271 210.686 175.742 216.581 174.811C220.917 174.126 225.056 176.125 227.305 179.577C228.118 180.815 228.685 182.238 228.931 183.792Z" fill="#2E2A6B"/>
<path fill-rule="evenodd" clip-rule="evenodd" d="M217.351 174.715C221.408 174.359 225.186 176.325 227.305 179.577C228.118 180.815 228.685 182.238 228.931 183.792C229.861 189.683 225.84 195.213 219.949 196.143C219.697 196.183 219.444 196.214 219.194 196.236C214.921 196.609 210.94 194.418 208.895 190.855C208.258 189.745 207.806 188.502 207.595 187.162C206.665 181.271 210.686 175.742 216.58 174.811C216.832 174.771 217.101 174.737 217.351 174.715ZM217.174 172.88C216.881 172.906 216.584 172.942 216.293 172.988C212.955 173.515 210.023 175.31 208.036 178.041C206.049 180.772 205.245 184.113 205.772 187.449C206.014 188.98 206.526 190.435 207.294 191.774C209.736 196.028 214.47 198.501 219.355 198.074C219.648 198.048 219.945 198.012 220.237 197.966C227.123 196.878 231.841 190.391 230.754 183.505C230.473 181.724 229.832 180.061 228.848 178.564C226.3 174.653 221.825 172.473 217.174 172.88Z" fill="#5596FE"/>
<path d="M227.305 179.576C224.844 189.831 214.909 191.084 208.923 190.882C208.282 189.775 207.827 188.533 207.611 187.193C206.661 181.306 210.664 175.763 216.555 174.813C220.889 174.113 225.044 176.132 227.305 179.576Z" fill="#00397F"/>
<path d="M217.239 182.009C217.548 183.964 216.213 185.8 214.257 186.109C212.302 186.418 210.466 185.083 210.157 183.127C209.848 181.172 211.183 179.336 213.139 179.028C215.094 178.719 216.93 180.053 217.239 182.009Z" fill="#97CEFF"/>
<path d="M226.955 186.227C227.596 186.525 227.394 190.365 224.978 192.203C222.832 193.837 219.578 193.403 219.398 192.731C219.265 192.236 220.854 191.844 223.291 189.788C225.856 187.623 226.509 186.019 226.955 186.227Z" fill="#C4E0F9"/>
<path d="M242.224 165.496C242.44 166.188 237.91 168.615 233.017 169.856C225.08 171.871 217.297 170.486 217.265 169.576C217.25 169.158 222.335 168.305 232.506 166.616C240.677 165.258 242.111 165.131 242.224 165.496Z" fill="#0059CC"/>
<path d="M248.888 227.575C243.791 228.529 239.367 226.817 235.902 224.189C229.684 219.481 226.553 211.819 228.174 211.333C230.696 210.584 237.611 213.604 244.539 212.308C252.499 210.819 257.415 207.084 261.464 206.092C261.645 206.044 261.821 206.006 261.998 205.973C266.154 205.196 264.528 224.65 248.888 227.575Z" fill="#00458F"/>
<path d="M248.889 227.576C243.792 228.529 239.368 226.818 235.903 224.19C242.593 221.657 255.563 215.734 261.465 206.092C261.646 206.044 261.823 206.007 262 205.973C266.155 205.196 264.529 224.651 248.889 227.576Z" fill="#00397F"/>
<mask id="mask2_802_12044" style="mask-type:luminance" maskUnits="userSpaceOnUse" x="-20" y="-46" width="517" height="517">
<path d="M454.79 -45.6131L-19.3984 -4.12695L22.0877 470.062L496.276 428.576L454.79 -45.6131Z" fill="white"/>
</mask>
<g mask="url(#mask2_802_12044)">
<path d="M177.521 181.572C177.28 181.436 171.571 178.153 167.203 170.671C163.206 163.825 159.626 152.013 165.269 134.613L168.341 135.61C164.13 148.592 164.657 159.791 169.906 168.896C173.821 175.687 179.061 178.732 179.113 178.762L177.521 181.572Z" fill="#5596FE"/>
<path d="M175.635 131.616C175.543 135.768 172.103 139.058 167.952 138.966C163.8 138.874 160.51 135.434 160.602 131.283C160.694 127.131 164.134 123.841 168.285 123.933C172.437 124.025 175.728 127.465 175.635 131.616Z" fill="#004590"/>
<path d="M161.972 131.187C162.322 133.388 164.39 134.888 166.59 134.538C168.791 134.188 170.292 132.121 169.942 129.92C169.592 127.719 167.524 126.219 165.323 126.569C163.123 126.919 161.623 128.987 161.972 131.187Z" fill="#005ACC"/>
</g>
</g>
<mask id="mask3_802_12044" style="mask-type:luminance" maskUnits="userSpaceOnUse" x="-72" y="-99" width="584" height="584">
<path d="M511.199 24.443L51.418 -98.7549L-71.7799 361.026L388.001 484.224L511.199 24.443Z" fill="white"/>
</mask>
<g mask="url(#mask3_802_12044)">
<path d="M318.364 134.94L308.756 126.163C307.408 124.932 307.313 122.841 308.544 121.493L321.086 107.763C322.317 106.415 324.408 106.32 325.756 107.552L335.364 116.328C336.712 117.56 336.807 119.65 335.575 120.998L323.034 134.729C321.803 136.076 319.712 136.171 318.364 134.94Z" fill="#5596FE"/>
<path d="M365.385 106.441C361.396 110.807 355.842 112.954 350.166 112.863C348.311 112.834 346.53 113.595 345.278 114.966L340.074 120.663C337.665 123.3 333.577 123.485 330.941 121.077L321.428 112.388C318.792 109.98 318.608 105.891 321.015 103.255L326.219 97.5586C327.471 96.1878 328.068 94.346 327.871 92.5002C327.268 86.8556 328.906 81.1293 332.894 76.7632C340.578 68.3511 354.08 68.1754 363.052 76.3695C372.024 84.5653 373.068 98.0292 365.385 106.441Z" fill="#FFDE00"/>
<path fill-rule="evenodd" clip-rule="evenodd" d="M363.052 76.3702C372.024 84.5656 373.069 98.0295 365.385 106.441C361.397 110.807 355.842 112.954 350.167 112.864C348.31 112.834 346.53 113.596 345.278 114.966L340.074 120.664C337.666 123.3 333.577 123.485 330.941 121.077L321.429 112.388C318.792 109.981 318.607 105.892 321.016 103.255L326.219 97.5589C327.471 96.1884 328.068 94.3461 327.871 92.5005C327.269 86.8559 328.906 81.1296 332.894 76.7635C340.578 68.3516 354.081 68.1757 363.052 76.3702ZM364.427 74.8653C359.704 70.5516 353.68 68.2206 347.464 68.3015C341.198 68.3832 335.489 70.9001 331.389 75.389C329.236 77.7462 327.663 80.4914 326.714 83.5487C325.802 86.4898 325.509 89.5747 325.844 92.7168C325.98 93.9856 325.568 95.2494 324.714 96.1843L319.511 101.881C316.348 105.342 316.592 110.731 320.054 113.893L329.566 122.582C333.028 125.744 338.417 125.5 341.579 122.038L346.783 116.341C347.637 115.406 348.858 114.882 350.134 114.902C353.294 114.952 356.339 114.382 359.186 113.208C362.145 111.988 364.736 110.173 366.89 107.816C370.99 103.327 372.981 97.4144 372.496 91.1668C372.015 84.969 369.15 79.1798 364.427 74.8653Z" fill="#FFAC00"/>
<path d="M329.602 127.825L314.828 114.329C314.443 113.978 314.416 113.381 314.767 112.997C315.118 112.613 315.715 112.586 316.099 112.937L330.873 126.433C331.258 126.783 331.285 127.38 330.934 127.764C330.583 128.148 329.987 128.176 329.602 127.825Z" fill="#5596FE"/>
<path d="M326.669 131.037L311.894 117.541C311.51 117.19 311.483 116.593 311.834 116.209C312.185 115.825 312.781 115.798 313.165 116.149L327.94 129.645C328.324 129.996 328.351 130.592 328 130.976C327.649 131.361 327.053 131.387 326.669 131.037Z" fill="#5596FE"/>
<path d="M323.735 134.248L308.96 120.753C308.576 120.402 308.549 119.805 308.9 119.421C309.251 119.037 309.847 119.01 310.232 119.361L325.006 132.856C325.39 133.208 325.417 133.804 325.066 134.188C324.715 134.573 324.12 134.599 323.735 134.248Z" fill="#5596FE"/>
<path d="M361.977 102.753C355.645 109.684 344.893 110.171 337.961 103.839C331.029 97.5072 330.543 86.7549 336.875 79.8228C343.206 72.891 353.959 72.4043 360.891 78.7364C367.823 85.0682 368.309 95.8209 361.977 102.753Z" fill="#FFF100"/>
<path d="M343.5 97.7829C339.119 93.7815 338.539 88.5655 338.465 87.0449C338.444 86.5949 338.791 86.2128 339.241 86.1911C339.69 86.1696 340.072 86.5166 340.094 86.9661C340.16 88.348 340.693 93.1397 344.773 96.7348C348.552 100.071 352.886 100.264 354.573 100.192C355.023 100.173 355.403 100.522 355.422 100.972C355.441 101.422 355.092 101.802 354.642 101.821C352.758 101.901 347.918 101.685 343.694 97.9571C343.629 97.8996 343.563 97.8409 343.5 97.7829Z" fill="#FFFF16"/>
<path d="M322.692 108.672C322.359 108.369 322.336 107.853 322.639 107.52L329.29 100.24C329.593 99.9078 330.109 99.8845 330.442 100.188C330.774 100.492 330.797 101.007 330.493 101.34L323.844 108.62C323.54 108.953 323.024 108.976 322.692 108.672Z" fill="#FFFF16"/>
<path d="M345.471 50.5061C345.629 45.0211 345.846 37.4717 345.846 37.4717" stroke="#FFAC00" stroke-width="8" stroke-linecap="round" stroke-linejoin="round"/>
<path d="M368.94 56.6633C371.317 51.7142 374.588 44.9023 374.588 44.9023" stroke="#FFAC00" stroke-width="8.00418" stroke-linecap="round" stroke-linejoin="round"/>
<path d="M384.285 69.2207C389.067 66.5311 395.648 62.8291 395.648 62.8291" stroke="#FFAC00" stroke-width="7.9987" stroke-linecap="round" stroke-linejoin="round"/>
<path d="M389.97 90.6352C395.452 90.8861 402.998 91.2314 402.998 91.2314" stroke="#FFAC00" stroke-width="8.00116" stroke-linecap="round" stroke-linejoin="round"/>
</g>
</g>
</g>
<defs>
<clipPath id="clip0_802_12044">
<rect width="476" height="476" fill="white"/>
</clipPath>
</defs>
</svg>
