<svg width="454" height="237" viewBox="0 0 454 237" fill="none" xmlns="http://www.w3.org/2000/svg">
<g clip-path="url(#clip0_297_7787)">
<path d="M30.7025 203.955L79.7769 203.804L128.851 203.75L227 203.653L325.149 203.75L374.223 203.804L423.298 203.955L374.223 204.1L325.149 204.155L227 204.252L128.851 204.155L79.7769 204.1L30.7025 203.955Z" fill="#263238"/>
<path d="M360.107 32.3613H92.8823V210.941H360.107V32.3613Z" fill="#C4E0F9"/>
<path d="M358.158 34.5386H94.8195V208.763H358.158V34.5386Z" fill="#263238"/>
<path d="M394.907 224.336H58.0757V236.594H394.907V224.336Z" fill="#C4E0F9"/>
<path d="M58.0757 224.33L92.8824 210.94H360.101L394.907 224.33H58.0757Z" fill="#C4E0F9"/>
<path d="M95.9877 219.582L118.446 210.94H334.531L356.995 219.582H95.9877Z" fill="#263238"/>
<path d="M343.279 47.7769H109.705V195.531H343.279V47.7769Z" fill="white"/>
<path d="M343.278 47.7769H109.505V53.4616H343.278V47.7769Z" fill="#455A64"/>
<path d="M114.033 50.6191C114.034 50.8992 113.952 51.1734 113.797 51.4069C113.642 51.6404 113.421 51.8227 113.162 51.9308C112.904 52.0388 112.619 52.0677 112.344 52.0138C112.068 51.9599 111.815 51.8256 111.617 51.6279C111.418 51.4302 111.283 51.1781 111.227 50.9034C111.172 50.6287 111.2 50.3439 111.307 50.085C111.414 49.826 111.596 49.6047 111.829 49.4489C112.062 49.2931 112.336 49.21 112.616 49.21C112.802 49.2092 112.986 49.245 113.158 49.3155C113.33 49.386 113.486 49.4896 113.617 49.6205C113.749 49.7515 113.853 49.9071 113.925 50.0784C113.996 50.2498 114.033 50.4335 114.033 50.6191Z" fill="#C4E0F9"/>
<path d="M119.795 50.6191C119.797 50.8992 119.715 51.1734 119.56 51.4069C119.405 51.6404 119.184 51.8227 118.925 51.9308C118.667 52.0388 118.382 52.0677 118.106 52.0138C117.831 51.9599 117.578 51.8256 117.38 51.6279C117.181 51.4302 117.045 51.1781 116.99 50.9034C116.935 50.6287 116.963 50.3439 117.07 50.085C117.177 49.826 117.358 49.6047 117.591 49.4489C117.824 49.2931 118.099 49.21 118.379 49.21C118.565 49.2092 118.749 49.245 118.921 49.3155C119.092 49.386 119.249 49.4896 119.38 49.6205C119.512 49.7515 119.616 49.9071 119.688 50.0784C119.759 50.2498 119.795 50.4335 119.795 50.6191Z" fill="white"/>
<path d="M125.558 50.6191C125.559 50.8995 125.477 51.1739 125.322 51.4075C125.167 51.6412 124.946 51.8235 124.687 51.9314C124.428 52.0392 124.142 52.0677 123.867 52.0133C123.592 51.9589 123.339 51.824 123.14 51.6257C122.942 51.4275 122.807 51.1748 122.752 50.8997C122.698 50.6246 122.726 50.3396 122.834 50.0808C122.942 49.8219 123.125 49.601 123.359 49.4459C123.592 49.2909 123.867 49.2088 124.148 49.21C124.522 49.21 124.881 49.3584 125.145 49.6227C125.41 49.8869 125.558 50.2453 125.558 50.6191Z" fill="#5596FE"/>
<path d="M343.279 53.4614H339.132V195.525H343.279V53.4614Z" fill="#C4E0F9"/>
<path d="M341.202 102.713C340.918 102.713 340.645 102.6 340.445 102.4C340.244 102.199 340.131 101.927 340.131 101.643V55.3605C340.131 55.0766 340.244 54.8043 340.445 54.6036C340.645 54.4028 340.918 54.29 341.202 54.29C341.486 54.29 341.759 54.4028 341.96 54.6036C342.161 54.8043 342.274 55.0766 342.274 55.3605V101.643C342.274 101.927 342.161 102.199 341.96 102.4C341.759 102.6 341.486 102.713 341.202 102.713Z" fill="#A6A6A6"/>
<path d="M302.921 62.3999H177.018V67.1835H302.921V62.3999Z" fill="white"/>
<path d="M302.969 67.2315H176.969V62.3511H302.969V67.2315Z" fill="#C4E0F9"/>
<path d="M302.969 62.3511H298.078V67.2375H302.969V62.3511Z" fill="#5596FE"/>
<path d="M302.061 66.1311L301.619 66.4637L300.796 65.3873L300.5 64.9881C300.561 64.9666 300.619 64.9338 300.669 64.8914C300.769 64.8151 300.848 64.7154 300.899 64.6011L301.214 65.0184L302.061 66.1311Z" fill="white"/>
<path d="M301.172 63.5852C301.03 63.4037 300.84 63.2663 300.623 63.189C300.406 63.1117 300.172 63.0978 299.947 63.1489C299.723 63.2 299.517 63.314 299.356 63.4775C299.194 63.641 299.082 63.8472 299.033 64.0721C298.984 64.2969 299.001 64.5309 299.08 64.7467C299.16 64.9625 299.3 65.1511 299.483 65.2905C299.666 65.4298 299.885 65.5141 300.115 65.5334C300.344 65.5527 300.574 65.5063 300.778 65.3995C300.838 65.369 300.895 65.3325 300.948 65.2907C301.042 65.2163 301.126 65.1287 301.196 65.0306C301.348 64.8192 301.428 64.5643 301.424 64.3039C301.419 64.0435 301.331 63.7915 301.172 63.5852ZM300.651 64.8915C300.601 64.9339 300.543 64.9667 300.481 64.9883C300.336 65.0493 300.174 65.0598 300.021 65.0182C299.869 64.9765 299.735 64.8851 299.64 64.7585C299.564 64.6578 299.516 64.5389 299.501 64.4138C299.485 64.2887 299.503 64.1617 299.552 64.0456C299.601 63.9295 299.68 63.8283 299.78 63.7521C299.881 63.676 300 63.6276 300.125 63.6117C300.25 63.5958 300.377 63.6131 300.494 63.6618C300.61 63.7104 300.712 63.7888 300.788 63.889C300.865 63.9892 300.914 64.1077 300.93 64.2327C300.946 64.3577 300.929 64.4848 300.881 64.6012C300.83 64.7156 300.751 64.8153 300.651 64.8915Z" fill="white"/>
<path d="M178.271 63.3369H178.016V66.2398H178.271V63.3369Z" fill="#C4E0F9"/>
<path d="M330.718 67.3707C330.476 67.5184 330.212 67.6285 329.937 67.6972C329.236 67.8669 328.497 67.7521 327.881 67.378C327.265 67.0039 326.822 66.401 326.65 65.7015C326.532 65.2149 326.55 64.7051 326.703 64.2283C326.857 63.7516 327.139 63.3265 327.52 63.0002C327.9 62.6738 328.363 62.4588 328.858 62.379C329.353 62.2991 329.86 62.3576 330.324 62.5478C330.787 62.7381 331.189 63.0528 331.485 63.457C331.781 63.8613 331.959 64.3394 332 64.8385C332.041 65.3377 331.943 65.8383 331.716 66.2852C331.49 66.7321 331.145 67.1077 330.718 67.3707Z" fill="#5596FE"/>
<path d="M330.119 64.746C330.119 64.9099 330.07 65.0701 329.979 65.2063C329.888 65.3426 329.758 65.4487 329.607 65.5115C329.455 65.5742 329.288 65.5906 329.127 65.5586C328.967 65.5266 328.819 65.4477 328.703 65.3319C328.587 65.216 328.508 65.0684 328.476 64.9076C328.444 64.7469 328.46 64.5803 328.523 64.4289C328.586 64.2775 328.692 64.1482 328.829 64.0571C328.965 63.9661 329.125 63.9175 329.289 63.9175C329.509 63.9175 329.72 64.0048 329.876 64.1602C330.031 64.3155 330.119 64.5263 330.119 64.746Z" fill="white"/>
<path d="M330.718 67.0259V67.3706C330.476 67.5183 330.212 67.6284 329.937 67.6972C329.586 67.7843 329.222 67.7998 328.865 67.7426C328.508 67.6855 328.166 67.5569 327.861 67.3645V67.0259C327.861 66.6473 328.011 66.2843 328.279 66.0167C328.547 65.749 328.91 65.5986 329.289 65.5986C329.668 65.5986 330.031 65.749 330.299 66.0167C330.567 66.2843 330.718 66.6473 330.718 67.0259Z" fill="white"/>
<path d="M321.299 67.7762H319.404V67.1049C319.405 67.0862 319.4 67.0676 319.39 67.0515C319.381 67.0354 319.367 67.0224 319.35 67.0142L319.144 66.8993C319.127 66.8891 319.109 66.8837 319.089 66.8837C319.07 66.8837 319.051 66.8891 319.035 66.8993L318.43 67.2319L317.485 65.5991L318.091 65.2604C318.106 65.2499 318.119 65.2354 318.128 65.2185C318.136 65.2015 318.14 65.1826 318.139 65.1637C318.139 65.1274 318.139 65.085 318.139 65.0488C318.139 65.0125 318.139 64.9701 318.139 64.9338C318.14 64.9149 318.136 64.896 318.128 64.879C318.119 64.8621 318.106 64.8476 318.091 64.8371L317.485 64.4984L318.43 62.8656L319.035 63.1982C319.051 63.2084 319.07 63.2138 319.089 63.2138C319.109 63.2138 319.127 63.2084 319.144 63.1982C319.21 63.1543 319.279 63.114 319.35 63.0772C319.367 63.0708 319.381 63.0591 319.391 63.0439C319.401 63.0286 319.405 63.0107 319.404 62.9926V62.3213H321.299V62.9926C321.299 63.0111 321.305 63.0291 321.314 63.045C321.324 63.0609 321.337 63.074 321.353 63.0833C321.426 63.1143 321.495 63.1528 321.559 63.1982C321.575 63.2084 321.594 63.2138 321.614 63.2138C321.633 63.2138 321.652 63.2084 321.668 63.1982L322.273 62.8656L323.218 64.4984L322.612 64.8371C322.597 64.8476 322.584 64.8621 322.575 64.879C322.567 64.896 322.563 64.9149 322.564 64.9338C322.564 64.9701 322.564 65.0064 322.564 65.0488C322.564 65.0911 322.564 65.1274 322.564 65.1637C322.563 65.1826 322.567 65.2015 322.575 65.2185C322.584 65.2354 322.597 65.2499 322.612 65.2604L323.218 65.5991L322.273 67.2319L321.668 66.8993C321.652 66.8891 321.633 66.8837 321.614 66.8837C321.594 66.8837 321.575 66.8891 321.559 66.8993L321.353 67.0142C321.336 67.0224 321.322 67.0354 321.313 67.0515C321.303 67.0676 321.298 67.0862 321.299 67.1049V67.7762ZM319.876 67.3045H320.827V67.1049C320.827 66.9994 320.856 66.896 320.912 66.8063C320.967 66.7166 321.047 66.6441 321.141 66.5969L321.305 66.5062C321.397 66.4531 321.501 66.4252 321.608 66.4252C321.714 66.4252 321.818 66.4531 321.91 66.5062L322.08 66.609L322.558 65.7866L322.382 65.6837C322.29 65.6317 322.215 65.5546 322.164 65.4616C322.114 65.3685 322.091 65.2632 322.098 65.1576V64.9762C322.091 64.8697 322.113 64.7634 322.164 64.6693C322.214 64.5752 322.29 64.4971 322.382 64.444L322.558 64.3472L322.08 63.5248L321.91 63.6215C321.82 63.6791 321.715 63.7097 321.608 63.7097C321.5 63.7097 321.395 63.6791 321.305 63.6215L321.141 63.5308C321.049 63.4806 320.972 63.4074 320.917 63.3184C320.862 63.2293 320.831 63.1275 320.827 63.0228V62.8232H319.876V63.0228C319.872 63.1275 319.841 63.2293 319.786 63.3184C319.731 63.4074 319.654 63.4806 319.562 63.5308L319.398 63.6215C319.308 63.6791 319.203 63.7097 319.095 63.7097C318.988 63.7097 318.883 63.6791 318.793 63.6215L318.623 63.5248L318.145 64.3472L318.321 64.444C318.413 64.4971 318.489 64.5752 318.539 64.6693C318.59 64.7634 318.612 64.8697 318.605 64.9762V65.1576C318.608 65.2634 318.584 65.3683 318.534 65.4617C318.484 65.5551 318.41 65.6337 318.321 65.6898L318.145 65.7866L318.623 66.609L318.793 66.5062C318.885 66.4531 318.989 66.4252 319.095 66.4252C319.202 66.4252 319.306 66.4531 319.398 66.5062L319.562 66.603C319.656 66.6501 319.736 66.7226 319.791 66.8123C319.847 66.9021 319.876 67.0055 319.876 67.111V67.3045ZM320.355 66.4397C320.078 66.4397 319.808 66.3578 319.578 66.2043C319.348 66.0508 319.168 65.8326 319.063 65.5773C318.957 65.322 318.929 65.0412 318.983 64.7702C319.037 64.4992 319.17 64.2503 319.366 64.0549C319.561 63.8595 319.81 63.7265 320.082 63.6726C320.353 63.6186 320.634 63.6463 320.89 63.752C321.145 63.8578 321.364 64.0368 321.517 64.2666C321.671 64.4963 321.753 64.7664 321.753 65.0427C321.753 65.4132 321.606 65.7685 321.343 66.0305C321.081 66.2925 320.725 66.4397 320.355 66.4397ZM320.355 64.1174C320.171 64.1174 319.992 64.1717 319.84 64.2734C319.688 64.375 319.569 64.5195 319.499 64.6886C319.429 64.8577 319.41 65.0437 319.446 65.2232C319.482 65.4027 319.57 65.5676 319.7 65.697C319.829 65.8264 319.994 65.9145 320.174 65.9502C320.353 65.9859 320.54 65.9676 320.709 65.8976C320.878 65.8275 321.023 65.7089 321.125 65.5568C321.226 65.4046 321.281 65.2257 321.281 65.0427C321.281 64.7973 321.183 64.562 321.009 64.3884C320.836 64.2149 320.6 64.1174 320.355 64.1174Z" fill="#C4E0F9"/>
<path d="M339.132 86.9106H164.735V96.7864H339.132V86.9106Z" fill="#C4E0F9"/>
<path d="M175.438 90.3638H172.472V93.3271H175.438V90.3638Z" fill="white"/>
<path d="M188.053 93.3271H185.087L186.297 91.8454L185.087 90.3638H188.053L189.263 91.8454L188.053 93.3271Z" fill="white"/>
<path d="M180.426 90.3638L180.904 91.3374L181.987 91.4947L181.207 92.2567L181.388 93.3271L180.426 92.8191L179.457 93.3271L179.645 92.2567L178.864 91.4947L179.941 91.3374L180.426 90.3638Z" fill="#5596FE"/>
<path d="M215.045 91.2407H191.394V92.4502H215.045V91.2407Z" fill="#263238"/>
<path d="M326.16 91.2407H304.688V92.4502H326.16V91.2407Z" fill="#263238"/>
<path d="M295.669 91.2407H222.266V92.4502H295.669V91.2407Z" fill="#455A64"/>
<path d="M175.438 100.239H172.472V103.203H175.438V100.239Z" fill="white"/>
<path d="M175.595 103.354H172.32V100.076H175.595V103.354ZM172.623 103.052H175.292V100.391H172.623V103.052Z" fill="#C4E0F9"/>
<path d="M188.053 103.203H185.087L186.297 101.721L185.087 100.239H188.053L189.263 101.721L188.053 103.203Z" fill="white"/>
<path d="M188.125 103.354H184.766L186.098 101.721L184.766 100.088H188.125L189.457 101.721L188.125 103.354ZM185.401 103.052H187.98L189.07 101.721L187.98 100.391H185.401L186.491 101.721L185.401 103.052Z" fill="#C4E0F9"/>
<path d="M180.426 100.239L180.904 101.213L181.987 101.37L181.207 102.132L181.388 103.203L180.426 102.695L179.457 103.203L179.645 102.132L178.864 101.37L179.941 101.213L180.426 100.239Z" fill="#5596FE"/>
<path d="M215.045 101.116H191.394V102.326H215.045V101.116Z" fill="#263238"/>
<path d="M326.16 101.116H304.688V102.326H326.16V101.116Z" fill="#263238"/>
<path d="M295.669 101.116H222.266V102.326H295.669V101.116Z" fill="#455A64"/>
<path d="M339.132 106.656H164.735V116.531H339.132V106.656Z" fill="#C4E0F9"/>
<path d="M175.438 110.109H172.472V113.072H175.438V110.109Z" fill="white"/>
<path d="M188.053 113.078H185.087L186.297 111.597L185.087 110.109H188.053L189.263 111.597L188.053 113.078Z" fill="white"/>
<path d="M180.426 110.109L180.904 111.089L181.987 111.246L181.207 112.002L181.388 113.078L180.426 112.57L179.457 113.078L179.645 112.002L178.864 111.246L179.941 111.089L180.426 110.109Z" fill="white"/>
<path d="M215.045 110.992H191.394V112.202H215.045V110.992Z" fill="#C4E0F9"/>
<path d="M326.16 110.992H304.688V112.202H326.16V110.992Z" fill="#C4E0F9"/>
<path d="M295.669 110.992H222.266V112.202H295.669V110.992Z" fill="#C4E0F9"/>
<path d="M175.438 119.985H172.472V122.948H175.438V119.985Z" fill="white"/>
<path d="M175.595 123.105H172.32V119.833H175.595V123.105ZM172.623 122.803H175.292V120.136H172.623V122.803Z" fill="#C4E0F9"/>
<path d="M188.053 122.954H185.087L186.297 121.473L185.087 119.985H188.053L189.263 121.473L188.053 122.954Z" fill="white"/>
<path d="M188.125 123.105H184.766L186.098 121.472L184.766 119.833H188.125L189.457 121.472L188.125 123.105ZM185.401 122.803H187.98L189.07 121.472L187.98 120.136H185.401L186.491 121.472L185.401 122.803Z" fill="#C4E0F9"/>
<path d="M180.426 119.985L180.904 120.965L181.987 121.122L181.207 121.878L181.388 122.954L180.426 122.446L179.457 122.954L179.645 121.878L178.864 121.122L179.941 120.965L180.426 119.985Z" fill="#5596FE"/>
<path d="M215.045 120.868H191.394V122.077H215.045V120.868Z" fill="#C4E0F9"/>
<path d="M326.16 120.868H304.688V122.077H326.16V120.868Z" fill="#C4E0F9"/>
<path d="M295.669 120.868H222.266V122.077H295.669V120.868Z" fill="#C4E0F9"/>
<path d="M339.132 126.407H164.735V136.283H339.132V126.407Z" fill="#C4E0F9"/>
<path d="M175.438 129.86H172.472V132.824H175.438V129.86Z" fill="white"/>
<path d="M188.053 132.83H185.087L186.297 131.342L185.087 129.86H188.053L189.263 131.342L188.053 132.83Z" fill="white"/>
<path d="M180.426 129.86L180.904 130.84L181.987 130.997L181.207 131.753L181.388 132.83L180.426 132.322L179.457 132.83L179.645 131.753L178.864 130.997L179.941 130.84L180.426 129.86Z" fill="#5596FE"/>
<path d="M215.045 130.744H191.394V131.953H215.045V130.744Z" fill="#C4E0F9"/>
<path d="M326.16 130.744H304.688V131.953H326.16V130.744Z" fill="#C4E0F9"/>
<path d="M295.669 130.744H222.266V131.953H295.669V130.744Z" fill="#C4E0F9"/>
<path d="M175.438 139.736H172.472V142.706H175.438V139.736Z" fill="white"/>
<path d="M175.595 142.857H172.32V139.585H175.595V142.857ZM172.623 142.554H175.292V139.887H172.623V142.554Z" fill="#C4E0F9"/>
<path d="M188.053 142.706H185.087L186.297 141.218L185.087 139.736H188.053L189.263 141.218L188.053 142.706Z" fill="white"/>
<path d="M188.125 142.857H184.766L186.098 141.218L184.766 139.585H188.125L189.469 141.2L188.125 142.857ZM185.401 142.554H187.98L189.07 141.218L187.98 139.887H185.401L186.491 141.218L185.401 142.554Z" fill="#C4E0F9"/>
<path d="M180.426 139.736L180.904 140.71L181.987 140.867L181.207 141.629L181.388 142.706L180.426 142.198L179.457 142.706L179.645 141.629L178.864 140.867L179.941 140.71L180.426 139.736Z" fill="white"/>
<path d="M181.6 142.978L180.438 142.373L179.269 142.978L179.493 141.683L178.549 140.764L179.851 140.577L180.456 139.397L181.061 140.577L182.363 140.764L181.424 141.683L181.6 142.978ZM180.438 142.028L181.2 142.427L181.055 141.575L181.66 140.97L180.807 140.843L180.426 140.075L180.044 140.843L179.191 140.97L179.796 141.575L179.663 142.409L180.438 142.028Z" fill="#C4E0F9"/>
<path d="M215.045 140.619H191.394V141.829H215.045V140.619Z" fill="#C4E0F9"/>
<path d="M326.16 140.619H304.688V141.829H326.16V140.619Z" fill="#C4E0F9"/>
<path d="M295.669 140.619H222.266V141.829H295.669V140.619Z" fill="#C4E0F9"/>
<path d="M339.132 146.159H164.735V156.034H339.132V146.159Z" fill="#C4E0F9"/>
<path d="M175.438 149.612H172.472V152.575H175.438V149.612Z" fill="white"/>
<path d="M188.053 152.575H185.087L186.297 151.093L185.087 149.612H188.053L189.263 151.093L188.053 152.575Z" fill="white"/>
<path d="M180.426 149.612L180.904 150.585L181.987 150.743L181.207 151.505L181.388 152.575L180.426 152.073L179.457 152.575L179.645 151.505L178.864 150.743L179.941 150.585L180.426 149.612Z" fill="#5596FE"/>
<path d="M215.045 150.489H191.394V151.698H215.045V150.489Z" fill="#C4E0F9"/>
<path d="M326.16 150.489H304.688V151.698H326.16V150.489Z" fill="#C4E0F9"/>
<path d="M295.669 150.489H222.266V151.698H295.669V150.489Z" fill="#C4E0F9"/>
<path d="M175.438 159.488H172.472V162.451H175.438V159.488Z" fill="white"/>
<path d="M175.595 162.602H172.32V159.342H175.595V162.602ZM172.623 162.3H175.292V159.639H172.623V162.3Z" fill="#C4E0F9"/>
<path d="M188.053 162.451H185.087L186.297 160.969L185.087 159.488H188.053L189.263 160.969L188.053 162.451Z" fill="white"/>
<path d="M188.125 162.602H184.766L186.098 160.969L184.766 159.336H188.125L189.457 160.969L188.125 162.602ZM185.401 162.3H187.98L189.07 160.969L187.98 159.639H185.401L186.491 160.969L185.401 162.3Z" fill="#C4E0F9"/>
<path d="M180.426 159.488L180.904 160.461L181.987 160.619L181.207 161.381L181.388 162.451L180.426 161.949L179.457 162.451L179.645 161.381L178.864 160.619L179.941 160.461L180.426 159.488Z" fill="white"/>
<path d="M181.6 162.729L180.438 162.125L179.269 162.729L179.493 161.435L178.549 160.516L179.851 160.322L180.456 159.143L181.061 160.322L182.363 160.516L181.424 161.435L181.6 162.729ZM180.426 161.762L181.188 162.167L181.043 161.314L181.648 160.709L180.795 160.582L180.414 159.808L180.032 160.582L179.179 160.709L179.784 161.314L179.639 162.167L180.426 161.762Z" fill="#C4E0F9"/>
<path d="M215.045 160.365H191.394V161.574H215.045V160.365Z" fill="#C4E0F9"/>
<path d="M326.16 160.365H304.688V161.574H326.16V160.365Z" fill="#C4E0F9"/>
<path d="M295.669 160.365H222.266V161.574H295.669V160.365Z" fill="#C4E0F9"/>
<path d="M339.132 165.904H164.735V175.78H339.132V165.904Z" fill="#C4E0F9"/>
<path d="M175.438 169.363H172.472V172.333H175.438V169.363Z" fill="white"/>
<path d="M188.053 172.327H185.087L186.297 170.845L185.087 169.363H188.053L189.263 170.845L188.053 172.327Z" fill="white"/>
<path d="M180.426 169.363L180.904 170.337L181.987 170.494L181.207 171.256L181.388 172.327L180.426 171.819L179.457 172.327L179.645 171.256L178.864 170.494L179.941 170.337L180.426 169.363Z" fill="white"/>
<path d="M215.045 170.24H191.394V171.45H215.045V170.24Z" fill="#C4E0F9"/>
<path d="M326.16 170.24H304.688V171.45H326.16V170.24Z" fill="#C4E0F9"/>
<path d="M295.669 170.24H222.266V171.45H295.669V170.24Z" fill="#C4E0F9"/>
<path d="M175.438 179.233H172.472V182.202H175.438V179.233Z" fill="white"/>
<path d="M175.595 182.354H172.32V179.082H175.595V182.354ZM172.623 182.051H175.292V179.384H172.623V182.051Z" fill="#C4E0F9"/>
<path d="M188.053 182.202H185.087L186.297 180.721L185.087 179.233H188.053L189.263 180.721L188.053 182.202Z" fill="white"/>
<path d="M188.125 182.354H184.766L186.098 180.721L184.766 179.082H188.125L189.457 180.721L188.125 182.354ZM185.401 182.051H187.98L189.07 180.721L187.98 179.384H185.401L186.491 180.721L185.401 182.051Z" fill="#C4E0F9"/>
<path d="M180.426 179.233L180.904 180.213L181.987 180.37L181.207 181.126L181.388 182.202L180.426 181.694L179.457 182.202L179.645 181.126L178.864 180.37L179.941 180.213L180.426 179.233Z" fill="white"/>
<path d="M181.6 182.481L180.438 181.876L179.269 182.481L179.493 181.181L178.549 180.261L179.851 180.074L180.456 178.895L181.061 180.074L182.363 180.261L181.424 181.181L181.6 182.481ZM180.438 181.525L181.2 181.924L181.055 181.078L181.66 180.473L180.807 180.352L180.426 179.578L180.044 180.352L179.191 180.473L179.796 181.078L179.651 181.924L180.438 181.525Z" fill="#C4E0F9"/>
<path d="M215.045 180.116H191.394V181.326H215.045V180.116Z" fill="#C4E0F9"/>
<path d="M326.16 180.116H304.688V181.326H326.16V180.116Z" fill="#C4E0F9"/>
<path d="M295.669 180.116H222.266V181.326H295.669V180.116Z" fill="#C4E0F9"/>
<path d="M339.132 185.656H164.735V195.531H339.132V185.656Z" fill="#C4E0F9"/>
<path d="M175.438 189.109H172.472V192.072H175.438V189.109Z" fill="white"/>
<path d="M188.053 192.078H185.087L186.297 190.597L185.087 189.109H188.053L189.263 190.597L188.053 192.078Z" fill="white"/>
<path d="M180.426 189.109L180.904 190.089L181.987 190.246L181.207 191.002L181.388 192.078L180.426 191.57L179.457 192.078L179.645 191.002L178.864 190.246L179.941 190.089L180.426 189.109Z" fill="#5596FE"/>
<path d="M215.045 189.992H191.394V191.201H215.045V189.992Z" fill="#C4E0F9"/>
<path d="M326.16 189.992H304.688V191.201H326.16V189.992Z" fill="#C4E0F9"/>
<path d="M295.669 189.992H222.266V191.201H295.669V189.992Z" fill="#C4E0F9"/>
<path d="M215.051 78.0024H182.036V81.5342H215.051V78.0024Z" fill="#C4E0F9"/>
<path d="M176.969 78.0024H172.472V81.5342H176.969V78.0024Z" fill="#C4E0F9"/>
<path d="M176.975 78.0026L176.424 78.5771L175.868 79.1396L175.262 79.7443L174.742 80.2463L174.221 79.7383L173.616 79.1335L173.059 78.5711L172.508 77.9966C172.702 78.1599 172.889 78.3352 173.083 78.5106L173.652 79.0368L174.288 79.6415L174.76 80.0951L175.232 79.6415L175.868 79.0368L176.437 78.5106C176.594 78.3413 176.757 78.1659 176.975 78.0026Z" fill="white"/>
<path d="M174.257 79.6353L174.185 79.726C174.076 79.8772 173.955 80.0163 173.84 80.1493L173.404 80.6392L172.956 81.0988C172.805 81.25 172.647 81.3951 172.49 81.5282C172.623 81.3467 172.768 81.1713 172.913 81.0081C173.059 80.8448 173.204 80.6815 173.349 80.5182C173.495 80.3549 173.646 80.2037 173.797 80.0586C173.949 79.9134 174.039 79.8227 174.167 79.7139L174.257 79.6353Z" fill="white"/>
<path d="M176.963 81.5345C176.806 81.4014 176.648 81.2563 176.497 81.1051L176.049 80.6455C175.904 80.4822 175.752 80.325 175.613 80.1556C175.474 79.9863 175.377 79.8835 175.268 79.7384L175.196 79.6416L175.286 79.7202C175.413 79.8291 175.535 79.944 175.656 80.0649C175.777 80.1859 175.958 80.3673 176.104 80.5245C176.249 80.6818 176.4 80.8451 176.539 81.0144C176.679 81.1837 176.824 81.3289 176.963 81.5345Z" fill="white"/>
<path d="M270.608 78.0024H237.593V81.5342H270.608V78.0024Z" fill="#C4E0F9"/>
<path d="M230.063 79.2001C230.063 79.3484 230.019 79.4934 229.936 79.6167C229.854 79.7401 229.737 79.8362 229.6 79.8929C229.462 79.9497 229.312 79.9645 229.166 79.9356C229.02 79.9067 228.887 79.8353 228.782 79.7304C228.677 79.6255 228.605 79.4919 228.576 79.3464C228.547 79.2009 228.562 79.0502 228.619 78.9131C228.676 78.7761 228.772 78.659 228.895 78.5766C229.019 78.4942 229.164 78.4502 229.312 78.4502C229.411 78.4494 229.509 78.4683 229.601 78.5057C229.692 78.5431 229.775 78.5983 229.845 78.6681C229.915 78.7379 229.97 78.8208 230.008 78.9122C230.045 79.0035 230.064 79.1014 230.063 79.2001Z" fill="#C4E0F9"/>
<path d="M230.632 81.262V81.5341H228.041V81.262C228.041 80.9187 228.178 80.5895 228.421 80.3468C228.663 80.1041 228.993 79.9678 229.337 79.9678C229.68 79.9678 230.01 80.1041 230.253 80.3468C230.495 80.5895 230.632 80.9187 230.632 81.262Z" fill="#C4E0F9"/>
<path d="M231.982 78.7463C231.983 78.8951 231.94 79.041 231.858 79.1652C231.776 79.2894 231.659 79.3865 231.521 79.444C231.384 79.5015 231.233 79.5169 231.086 79.4881C230.94 79.4594 230.806 79.3878 230.701 79.2826C230.595 79.1774 230.524 79.0432 230.495 78.8972C230.466 78.7511 230.481 78.5999 230.539 78.4626C230.597 78.3253 230.694 78.2083 230.818 78.1263C230.942 78.0444 231.088 78.0013 231.237 78.0025C231.435 78.0025 231.624 78.0808 231.764 78.2203C231.903 78.3598 231.982 78.549 231.982 78.7463Z" fill="#C4E0F9"/>
<path d="M232.527 80.8083V81.0805H229.936V80.8083C229.936 80.4651 230.072 80.1359 230.315 79.8932C230.558 79.6505 230.888 79.5142 231.231 79.5142C231.575 79.5142 231.904 79.6505 232.147 79.8932C232.39 80.1359 232.527 80.4651 232.527 80.8083Z" fill="#C4E0F9"/>
<path d="M326.166 78.0024H293.151V81.5342H326.166V78.0024Z" fill="#C4E0F9"/>
<path d="M288.084 78.0024H283.587V81.5342H288.084L289.428 79.7683L288.084 78.0024ZM288.12 80.0344C288.05 80.0344 287.982 80.0064 287.932 79.9565C287.882 79.9066 287.854 79.8389 287.854 79.7683C287.856 79.7328 287.864 79.698 287.88 79.6659C287.895 79.6338 287.916 79.6051 287.943 79.5814C287.969 79.5577 288 79.5396 288.034 79.5281C288.068 79.5165 288.103 79.5119 288.139 79.5143C288.174 79.5135 288.209 79.5198 288.242 79.5329C288.274 79.546 288.304 79.5656 288.329 79.5904C288.354 79.6153 288.373 79.645 288.386 79.6776C288.4 79.7103 288.406 79.7453 288.405 79.7804C288.402 79.8489 288.372 79.9135 288.323 79.9608C288.273 80.0081 288.207 80.0345 288.139 80.0344H288.12Z" fill="#C4E0F9"/>
<path d="M164.735 53.4614H109.505V195.525H164.735V53.4614Z" fill="#5596FE"/>
<path d="M157.017 74.4946H117.229V85.0356H157.017V74.4946Z" fill="white"/>
<path d="M122.774 62.3511H117.229V63.2401H122.774V62.3511Z" fill="white"/>
<path d="M122.774 66.3428H117.229V67.2318H122.774V66.3428Z" fill="white"/>
<path d="M122.774 64.3711H117.229V65.2601H122.774V64.3711Z" fill="white"/>
<path d="M135.752 62.3511H128.04V67.2375H135.752V62.3511Z" fill="#C4E0F9"/>
<path d="M135.752 62.3511V67.2315H128.04V62.3511C128.373 62.5385 128.7 62.7321 129.027 62.9256C129.354 63.1191 129.681 63.3126 130.001 63.5304L131.085 64.2016L131.896 64.7096L132.707 64.2016L133.791 63.5304C134.112 63.3308 134.439 63.1373 134.765 62.9256C135.092 62.7139 135.419 62.5385 135.752 62.3511Z" fill="#C4E0F9"/>
<path d="M135.752 62.3511L134.808 62.9921L133.857 63.5969L132.859 64.244L131.969 64.8124H131.926H131.884L130.994 64.244L129.995 63.5969L129.045 62.9921L128.101 62.3511C128.434 62.5385 128.76 62.7321 129.087 62.9256C129.414 63.1191 129.741 63.3126 130.062 63.5304L131.145 64.2016L131.957 64.7096L132.768 64.2016L133.851 63.5304C134.172 63.3308 134.499 63.1373 134.826 62.9256C135.153 62.7139 135.419 62.5385 135.752 62.3511Z" fill="white"/>
<path d="M131.097 64.1775L130.976 64.2803C130.782 64.4436 130.589 64.6008 130.371 64.752C130.153 64.9032 129.874 65.1209 129.626 65.2963C129.378 65.4717 129.118 65.6471 128.857 65.8104C128.597 65.9736 128.331 66.143 128.058 66.2881C128.294 66.0825 128.536 65.895 128.785 65.6834C129.033 65.4717 129.281 65.3145 129.529 65.1391C129.777 64.9637 130.038 64.7883 130.304 64.625C130.57 64.4617 130.722 64.3589 130.909 64.238L131.061 64.1533L131.097 64.1775Z" fill="white"/>
<path d="M135.734 66.2942C135.462 66.1491 135.195 65.9858 134.935 65.8164C134.675 65.6471 134.42 65.4778 134.166 65.3024C133.912 65.127 133.664 64.9456 133.415 64.7581C133.167 64.5706 133.022 64.4497 132.81 64.2864L132.689 64.1836L132.84 64.2683C133.052 64.3892 133.264 64.5223 133.446 64.6553C133.627 64.7884 133.966 64.994 134.215 65.1693C134.463 65.3447 134.723 65.5262 134.965 65.7136C135.207 65.9011 135.498 66.0886 135.734 66.2942Z" fill="white"/>
<path opacity="0.1" d="M164.735 94.228H109.505V101.721H164.735V94.228Z" fill="#374151"/>
<path d="M149.257 95.8369H117.229V100.24H149.257V95.8369Z" fill="white"/>
<path d="M149.257 104.455H117.229V108.857H149.257V104.455Z" fill="white"/>
<path d="M149.257 113.079H117.229V117.481H149.257V113.079Z" fill="white"/>
<path d="M149.257 121.696H117.229V126.099H149.257V121.696Z" fill="white"/>
<path d="M156.055 130.32H124.027V134.723H156.055V130.32Z" fill="#455A64"/>
<path d="M156.055 138.938H124.027V143.341H156.055V138.938Z" fill="#455A64"/>
<path d="M149.257 147.562H117.229V151.965H149.257V147.562Z" fill="white"/>
<path d="M149.257 156.18H117.229V160.582H149.257V156.18Z" fill="white"/>
<path d="M109.178 150.555C109.142 150.143 109.124 149.732 109.124 149.345H109.565C109.565 149.738 109.565 150.137 109.62 150.555H109.178Z" fill="#263238"/>
<path d="M148.174 179.365V178.912C148.979 178.912 149.79 178.881 150.595 178.827L150.625 179.281C149.802 179.329 148.985 179.359 148.174 179.365ZM145.147 179.274C144.336 179.22 143.519 179.141 142.726 179.039L142.78 178.591C143.573 178.688 144.384 178.766 145.201 178.821L145.147 179.274ZM153.658 178.972L153.597 178.519C154.384 178.41 155.189 178.277 155.976 178.119L156.061 178.567C155.25 178.724 154.439 178.857 153.64 178.972H153.658ZM139.735 178.543C138.948 178.385 138.149 178.198 137.362 177.992L137.477 177.557C138.252 177.757 139.045 177.944 139.826 178.101L139.735 178.543ZM159.051 177.871L158.936 177.436C159.705 177.23 160.486 176.995 161.249 176.741L161.388 177.176C160.577 177.43 159.808 177.66 159.009 177.871H159.051ZM134.384 177.109C133.615 176.849 132.847 176.565 132.096 176.257L132.272 175.839C133.01 176.142 133.773 176.444 134.529 176.68L134.384 177.109ZM164.191 176.13L164.021 175.706C164.409 175.555 164.796 175.392 165.184 175.223C165.571 175.053 165.886 174.914 166.231 174.751L166.424 175.156C166.073 175.325 165.722 175.483 165.365 175.64L164.191 176.13ZM129.318 175.011C128.591 174.66 127.865 174.273 127.163 173.88L127.38 173.481C128.083 173.874 128.797 174.255 129.517 174.606L129.318 175.011ZM169.112 173.735L168.882 173.342C169.566 172.943 170.25 172.507 170.91 172.054L171.164 172.429C170.517 172.888 169.826 173.324 169.13 173.735H169.112ZM124.56 172.296C123.882 171.854 123.21 171.382 122.562 170.899L122.828 170.536C123.476 171.013 124.142 171.479 124.808 171.915L124.56 172.296ZM173.592 170.602L173.307 170.251C173.912 169.756 174.518 169.223 175.123 168.673L175.432 169.006C174.851 169.562 174.233 170.1 173.616 170.602H173.592ZM120.195 169.018C119.59 168.492 118.984 167.935 118.379 167.373L118.694 167.046C119.299 167.603 119.868 168.153 120.51 168.673L120.195 169.018ZM177.611 166.883L177.284 166.568C177.823 165.994 178.362 165.389 178.888 164.754L179.233 165.051C178.701 165.673 178.156 166.284 177.611 166.865V166.883ZM116.285 165.159C115.74 164.555 115.219 163.914 114.723 163.279L115.086 163C115.57 163.605 116.085 164.252 116.624 164.857L116.285 165.159ZM181.14 162.68L180.777 162.402C181.249 161.797 181.727 161.126 182.199 160.454L182.575 160.714C182.097 161.392 181.6 162.051 181.14 162.68ZM112.967 160.787C112.52 160.092 112.108 159.384 111.757 158.676L112.162 158.465C112.526 159.16 112.937 159.856 113.373 160.539L112.967 160.787ZM184.27 158.193L183.888 157.951C184.324 157.273 184.748 156.59 185.172 155.901L185.559 156.136C185.135 156.832 184.706 157.527 184.27 158.193ZM110.461 155.901C110.165 155.139 109.913 154.362 109.705 153.572L110.141 153.457C110.347 154.23 110.595 154.992 110.885 155.737L110.461 155.901ZM187.103 153.518L186.703 153.294C187.103 152.599 187.496 151.891 187.914 151.177L188.307 151.395C187.904 152.109 187.502 152.816 187.103 153.518ZM189.724 148.722L189.318 148.51C189.693 147.803 190.069 147.083 190.438 146.363L190.844 146.569C190.468 147.295 190.075 148.014 189.724 148.722ZM192.218 143.884L191.812 143.678L192.902 141.513L193.307 141.713L192.218 143.884ZM194.639 139.004L194.233 138.798L195.323 136.633L195.729 136.832L194.639 139.004ZM197.097 134.166L196.733 133.942C197.097 133.222 197.472 132.502 197.847 131.783L198.247 131.994L197.097 134.166ZM199.627 129.327L199.227 129.11C199.607 128.4 199.994 127.693 200.39 126.987L200.789 127.205C200.414 127.894 200.035 128.592 199.651 129.297L199.627 129.327ZM202.278 124.586L201.885 124.356C202.288 123.663 202.692 122.967 203.096 122.27L203.489 122.506C203.12 123.165 202.708 123.86 202.303 124.556L202.278 124.586ZM205.105 119.948L204.724 119.706C205.16 119.022 205.602 118.351 206.056 117.68L206.431 117.934C206.001 118.569 205.565 119.24 205.129 119.917L205.105 119.948ZM208.132 115.454L207.763 115.188C208.235 114.529 208.719 113.882 209.209 113.235L209.573 113.507C209.131 114.124 208.652 114.771 208.18 115.424L208.132 115.454ZM211.443 111.142L211.092 110.852C211.613 110.247 212.139 109.6 212.666 109.001L213.005 109.298C212.533 109.866 212.006 110.483 211.492 111.112L211.443 111.142ZM215.045 107.072L214.712 106.758C215.275 106.153 215.85 105.585 216.419 105.028L216.74 105.349C216.219 105.875 215.65 106.455 215.093 107.042L215.045 107.072ZM218.943 103.287L218.64 102.954C219.246 102.416 219.851 101.877 220.456 101.363L220.747 101.714C220.202 102.192 219.585 102.724 218.992 103.256L218.943 103.287ZM223.138 99.8455L222.866 99.4826C223.513 98.9927 224.179 98.515 224.839 98.0614L225.093 98.4364C224.488 98.8657 223.834 99.3314 223.187 99.8152L223.138 99.8455ZM227.612 96.7733L227.375 96.3923C228.059 95.9629 228.762 95.5456 229.464 95.1465L229.688 95.5396C229.04 95.9024 228.344 96.3197 227.66 96.743L227.612 96.7733Z" fill="#263238"/>
<path d="M232.497 94.0279L232.291 93.6288C232.646 93.4393 233.009 93.2578 233.38 93.0845L233.58 93.4957L232.497 94.0279Z" fill="#263238"/>
<path d="M231.122 86.7101L227.327 97.1301L235.299 90.9071L265.772 79.8643L231.122 86.7101Z" fill="#5596FE"/>
<path opacity="0.1" d="M231.122 86.7101L227.327 97.1301L235.299 90.9071L265.772 79.8643L231.122 86.7101Z" fill="black"/>
<path d="M236.322 93.3323L227.327 97.1302L235.299 90.9072L236.322 93.3323Z" fill="#263238"/>
<path d="M235.299 90.9071L265.772 79.8643L240.777 104.236L235.299 90.9071Z" fill="#5596FE"/>
<path d="M231.122 86.7103L218.459 78.54L265.772 79.8645L231.122 86.7103Z" fill="#5596FE"/>
<path d="M368.792 60.2179C372.712 44.4032 363.058 28.4078 347.228 24.4911C331.399 20.5745 315.388 30.2197 311.468 46.0344C307.547 61.8491 317.202 77.8445 333.031 81.7612C348.861 85.6779 364.872 76.0326 368.792 60.2179Z" fill="#9CA3AF"/>
<path d="M360.288 40.3555H319.979V65.8944H360.288V40.3555Z" fill="#F3F4F6"/>
<path d="M360.288 40.3555C358.66 41.9097 357.001 43.3793 355.361 44.9274C353.721 46.4756 352.05 47.9512 350.385 49.4087C348.721 50.8662 346.904 52.4869 345.161 54.0109L345.004 54.1561L340.361 58.1838L340.131 58.3712L339.907 58.1838L335.27 54.15L335.107 54.0109C333.357 52.4869 331.614 50.9871 329.876 49.3966C328.139 47.8061 326.559 46.4272 324.907 44.9274C323.254 43.4276 321.608 41.9037 319.979 40.3555C321.711 41.6859 323.411 43.089 325.125 44.4557C326.838 45.8225 328.539 47.2376 330.234 48.6528C332.122 50.213 334.011 51.8036 335.893 53.4062C337.304 54.6157 338.714 55.8252 340.131 56.9984C341.535 55.7889 342.946 54.5794 344.368 53.4062C346.253 51.7935 348.139 50.207 350.028 48.6467C351.723 47.2437 353.424 45.8406 355.131 44.4618C356.838 43.0829 358.557 41.6859 360.288 40.3555Z" fill="#C4E0F9"/>
<path d="M335.96 53.9868L335.912 54.0291L335.306 54.5674C334.295 55.4201 333.26 56.2365 332.207 57.0288C330.924 58.0085 329.61 58.9458 328.29 59.8772C326.971 60.8085 325.633 61.6914 324.271 62.5744C322.909 63.4573 321.535 64.2979 320.112 65.0781C321.323 64.0077 322.606 63.0098 323.89 62.0543C325.173 61.0988 326.493 60.1372 327.806 59.1998C329.12 58.2625 330.47 57.3856 331.832 56.5026C332.915 55.8071 334.017 55.1238 335.143 54.4827L335.93 54.0412L335.96 53.9868Z" fill="#C4E0F9"/>
<path d="M360.173 65.0781C358.751 64.2979 357.371 63.4452 356.015 62.5744C354.659 61.7035 353.321 60.7964 351.989 59.8772C350.658 58.9579 349.356 58.0085 348.073 57.0288C347.026 56.2365 345.99 55.4261 344.986 54.5734L344.344 54.0291L344.296 53.9868H344.356L345.143 54.4343C346.269 55.0754 347.365 55.7588 348.454 56.4542C349.816 57.3251 351.148 58.2322 352.474 59.1515C353.799 60.0707 355.107 61.0262 356.39 62.0059C357.673 62.9856 358.963 64.0077 360.173 65.0781Z" fill="#C4E0F9"/>
<path d="M357.987 46.5135C361.384 45.3498 363.193 41.6558 362.028 38.2626C360.863 34.8695 357.165 33.0622 353.769 34.2259C350.373 35.3896 348.564 39.0837 349.728 42.4768C350.893 45.87 354.591 47.6773 357.987 46.5135Z" fill="#5596FE"/>
<path d="M355.161 41.7831V36.4975C355.163 36.3071 355.239 36.125 355.374 35.9904C355.509 35.8557 355.691 35.7794 355.881 35.7778C355.975 35.7786 356.068 35.7979 356.154 35.8345C356.241 35.8711 356.319 35.9243 356.385 35.9911C356.451 36.0579 356.503 36.1371 356.538 36.2239C356.573 36.3108 356.591 36.4038 356.59 36.4975V41.7831C356.591 41.8767 356.574 41.9698 356.539 42.0567C356.504 42.1436 356.452 42.2226 356.386 42.2891C356.32 42.3557 356.242 42.4083 356.155 42.4439C356.068 42.4796 355.975 42.4975 355.881 42.4967C355.787 42.4975 355.694 42.4796 355.606 42.4441C355.519 42.4086 355.439 42.3562 355.373 42.2898C355.306 42.2235 355.252 42.1446 355.216 42.0576C355.18 41.9706 355.161 41.8773 355.161 41.7831ZM355.881 44.9339C355.787 44.9339 355.693 44.9153 355.606 44.8791C355.518 44.8429 355.439 44.7899 355.372 44.7231C355.305 44.6563 355.252 44.5769 355.216 44.4896C355.18 44.4023 355.161 44.3087 355.161 44.2142V43.9542C355.161 43.7627 355.237 43.5791 355.372 43.4431C355.507 43.3072 355.69 43.2301 355.881 43.2285C355.975 43.2292 356.068 43.2485 356.154 43.2851C356.241 43.3217 356.319 43.3749 356.385 43.4417C356.451 43.5086 356.503 43.5877 356.538 43.6746C356.573 43.7615 356.591 43.8544 356.59 43.9481V44.2082C356.592 44.3026 356.576 44.3966 356.541 44.4845C356.507 44.5725 356.455 44.6526 356.389 44.7203C356.323 44.7879 356.244 44.8416 356.157 44.8783C356.07 44.915 355.976 44.9339 355.881 44.9339Z" fill="#F3F4F6"/>
</g>
<defs>
<clipPath id="clip0_297_7787">
<rect width="454" height="237" fill="white"/>
</clipPath>
</defs>
</svg>
