<svg width="267" height="205" viewBox="0 0 267 205" fill="none" xmlns="http://www.w3.org/2000/svg">
<g clip-path="url(#clip0_288_5763)">
<path d="M266.412 43.4917L246.51 72.4037C245.465 73.9243 243.378 74.3095 241.853 73.2678L185.91 35.0043C184.384 33.9626 183.998 31.8827 185.043 30.362L204.945 1.45001C205.99 -0.070617 208.077 -0.455798 209.602 0.585865L265.545 38.8494C267.071 39.8911 267.46 41.9711 266.412 43.4917Z" fill="#374151"/>
<path d="M263.559 47.6327L202.093 5.58594L197.908 11.6643L259.375 53.7111L263.559 47.6327Z" fill="#374151"/>
<path d="M212.361 23.9165L202.415 17.1127C201.717 16.6355 200.763 16.8123 200.284 17.5078L193.459 27.4222C192.98 28.1177 193.157 29.0684 193.855 29.5457L203.801 36.3494C204.499 36.8267 205.453 36.6498 205.932 35.9543L212.757 26.04C213.236 25.3445 213.058 24.3938 212.361 23.9165Z" fill="#97CEFF"/>
<path opacity="0.5" d="M205.788 43.5353L191.051 33.4536C190.399 33.0081 190.231 32.1138 190.678 31.464C191.125 30.8143 192.022 30.6468 192.674 31.0923L207.411 41.1739C208.063 41.6194 208.231 42.5137 207.784 43.1635C207.337 43.8133 206.44 43.9807 205.788 43.5353Z" fill="#F3F0FF"/>
<path opacity="0.5" d="M224.202 56.129L209.464 46.0473C208.812 45.6019 208.644 44.7076 209.091 44.0578C209.538 43.408 210.435 43.2405 211.087 43.686L225.825 53.7677C226.477 54.2132 226.645 55.1075 226.198 55.7572C225.751 56.407 224.854 56.5745 224.202 56.129Z" fill="#F3F0FF"/>
<path opacity="0.5" d="M242.105 68.3746L227.367 58.2929C226.715 57.8475 226.547 56.9532 226.994 56.3034C227.441 55.6536 228.338 55.4861 228.99 55.9316L243.728 66.0133C244.38 66.4588 244.548 67.3531 244.101 68.0028C243.654 68.6526 242.757 68.8201 242.105 68.3746Z" fill="#F3F0FF"/>
<g style="mix-blend-mode:soft-light" opacity="0.15">
<path d="M254.329 61.0457L246.51 72.4069C245.465 73.9275 243.378 74.3127 241.853 73.2711L185.91 35.0075C184.384 33.9659 183.998 31.8859 185.043 30.3653L185.896 29.126C189.757 32.1438 193.483 35.3458 197.368 38.3368C200.221 40.5307 203.107 42.691 206.155 44.6069C220.576 53.6771 237.787 56.8891 254.332 61.0457H254.329Z" fill="black"/>
</g>
<path opacity="0.5" d="M223.412 16.4789L209.165 6.73552C208.829 6.50776 208.745 6.04554 208.974 5.71395C209.202 5.37901 209.666 5.29527 209.999 5.52303L224.246 15.2664C224.582 15.4942 224.666 15.9564 224.437 16.288C224.209 16.6229 223.745 16.7067 223.412 16.4789Z" fill="#F3F0FF"/>
<path d="M72.6026 25.673C72.9319 14.0942 63.9872 4.44453 52.6266 4.12299C41.2626 3.80145 31.7837 12.9286 31.4544 24.5074C31.1251 36.0863 40.0698 45.7359 51.4304 46.0575C62.7944 46.379 72.2733 37.2519 72.6026 25.673ZM36.5047 24.6515C36.7533 15.9296 43.9205 9.02986 52.4788 9.27102C61.037 9.51217 67.801 16.8072 67.5523 25.529C67.3037 34.2508 60.1365 41.1506 51.5782 40.9094C43.02 40.6683 36.256 33.3733 36.5047 24.6515Z" fill="#374151"/>
<path d="M71.0804 29.6889L71.3123 21.5767L76.0535 22.1427L75.8485 29.3942L71.0804 29.6889Z" fill="#374151"/>
<path d="M70.7545 19.4999L66.9744 12.3624L71.3593 10.4331L74.7396 16.8171L70.7545 19.4999Z" fill="#374151"/>
<path d="M65.4724 10.8453L58.6949 6.59492L61.5477 2.69287L67.6094 6.49444L65.4724 10.8453Z" fill="#374151"/>
<path d="M56.6486 6.04887L48.6885 5.82446L49.2463 0.994629L56.3664 1.19559L56.6486 6.04887Z" fill="#374151"/>
<path d="M46.6455 6.39736L39.6396 10.2559L37.7512 5.79112L44.0212 2.33789L46.6455 6.39736Z" fill="#374151"/>
<path d="M38.1511 11.7896L33.9711 18.7027L30.1439 15.7988L33.8804 9.61914L38.1511 11.7896Z" fill="#374151"/>
<path d="M33.4335 20.7896L33.2016 28.9018L28.4604 28.3357L28.6688 21.0843L33.4335 20.7896Z" fill="#374151"/>
<path d="M33.7594 30.9785L37.5396 38.1161L33.1546 40.0453L29.7743 33.6614L33.7594 30.9785Z" fill="#374151"/>
<path d="M39.0415 39.6333L45.8189 43.8837L42.9661 47.7857L36.9044 43.9842L39.0415 39.6333Z" fill="#374151"/>
<path d="M47.8652 44.4263L55.8254 44.654L55.2676 49.4839L48.1508 49.2829L47.8652 44.4263Z" fill="#374151"/>
<path d="M57.8684 44.0812L64.8777 40.2227L66.7627 44.6874L60.496 48.1406L57.8684 44.0812Z" fill="#374151"/>
<path d="M66.3662 38.6886L70.5462 31.7754L74.3701 34.6793L70.6336 40.859L66.3662 38.6886Z" fill="#374151"/>
<path d="M33.0604 57.6835C33.2856 49.7889 27.1869 43.2107 19.4418 42.993C11.6967 42.772 5.23178 48.9951 5.00665 56.8897C4.78152 64.7842 10.8802 71.3624 18.6253 71.5801C26.3704 71.8012 32.8353 65.578 33.0604 57.6835ZM8.45079 56.9868C8.6188 51.0416 13.5044 46.3357 19.341 46.5032C25.1776 46.6673 29.7843 51.6412 29.6163 57.5863C29.4483 63.5315 24.5627 68.2374 18.7261 68.07C12.8895 67.9058 8.28278 62.932 8.45079 56.9868Z" fill="#374151"/>
<path d="M32.0222 60.42L32.1801 54.8901L35.4126 55.2753L35.2715 60.2224L32.0222 60.42Z" fill="#374151"/>
<path d="M31.8004 53.4731L29.2231 48.6098L32.2137 47.2935L34.5187 51.6443L31.8004 53.4731Z" fill="#374151"/>
<path d="M28.1983 47.5747L23.5781 44.6775L25.5236 42.0181L29.6566 44.6072L28.1983 47.5747Z" fill="#374151"/>
<path d="M22.1837 44.3059L16.7571 44.1518L17.1368 40.8594L21.9922 40.9967L22.1837 44.3059Z" fill="#374151"/>
<path d="M15.366 44.5406L10.5878 47.1732L9.3009 44.1286L13.575 41.7773L15.366 44.5406Z" fill="#374151"/>
<path d="M9.57308 48.2182L6.72368 52.9308L4.11621 50.9513L6.6632 46.7378L9.57308 48.2182Z" fill="#374151"/>
<path d="M6.35742 54.354L6.1995 59.8839L2.96704 59.4987L3.10817 54.555L6.35742 54.354Z" fill="#374151"/>
<path d="M6.57925 61.3008L9.15648 66.1675L6.16595 67.4804L3.86426 63.1296L6.57925 61.3008Z" fill="#374151"/>
<path d="M10.1812 67.1992L14.8014 70.0964L12.8559 72.7592L8.7229 70.1668L10.1812 67.1992Z" fill="#374151"/>
<path d="M16.1959 70.4683L21.6225 70.6223L21.2429 73.9181L16.3908 73.7808L16.1959 70.4683Z" fill="#374151"/>
<path d="M23.0137 70.2337L27.7918 67.6011L29.0787 70.6457L24.8046 73.0003L23.0137 70.2337Z" fill="#374151"/>
<path d="M28.8065 66.5559L31.6559 61.8433L34.2667 63.8228L31.7164 68.0363L28.8065 66.5559Z" fill="#374151"/>
<path d="M151.613 201.479H106.194C107.877 199.821 109.302 197.169 110.502 194.004C112.84 187.844 114.332 179.738 115.239 173.177C116.143 166.642 116.466 161.645 116.466 161.645H141.331C141.331 161.645 143.387 193.374 151.606 201.479H151.613Z" fill="#5596FE"/>
<g style="mix-blend-mode:soft-light" opacity="0.15">
<path d="M151.613 201.479H106.194C107.877 199.822 109.302 197.169 110.502 194.004C118.173 194.231 125.844 194.459 133.515 194.684C136.287 194.767 139.691 194.489 140.87 191.981C141.368 190.922 141.317 189.696 141.2 188.537C140.907 185.69 140.272 182.874 139.308 180.177C138.532 178.007 137.42 175.776 135.407 174.647C133.418 173.532 130.988 173.726 128.71 173.844C125.001 174.035 121.264 173.968 117.568 173.579C116.714 173.492 115.938 173.365 115.239 173.18C116.143 166.646 116.466 161.648 116.466 161.648H141.331C141.331 161.648 143.387 193.377 151.606 201.483L151.613 201.479Z" fill="black"/>
</g>
<path d="M215.748 42.604H42.0589C36.5492 42.604 32.0826 47.0562 32.0826 52.5484V161.555C32.0826 167.047 36.5492 171.499 42.0589 171.499H215.748C221.258 171.499 225.724 167.047 225.724 161.555V52.5484C225.724 47.0562 221.258 42.604 215.748 42.604Z" fill="#5596FE"/>
<path d="M217.915 50.0193V164.083C217.915 164.22 217.804 164.331 217.67 164.331H40.1403C40.0059 164.331 39.895 164.22 39.895 164.083V50.0193C39.895 49.882 40.0059 49.7715 40.1403 49.7715H217.67C217.804 49.7715 217.915 49.882 217.915 50.0193Z" fill="#C8DDEF"/>
<path d="M161.972 205H95.8413C95.8413 201.111 99.0066 197.956 102.908 197.956H154.906C158.807 197.956 161.972 201.111 161.972 205Z" fill="#5596FE"/>
<path d="M178.007 40.5477C141.892 53.3793 125.733 22.7256 125.733 22.7256C125.733 22.7256 109.574 53.3793 73.4594 40.5477C73.4594 40.5477 52.1393 151.41 125.733 157.469C199.327 151.41 178.007 40.5477 178.007 40.5477Z" fill="#97CEFF"/>
<path d="M175.453 76.4368C175.346 87.6037 174.23 97.8294 172.133 106.829C169.58 117.799 165.568 126.922 160.205 133.953C156.287 139.094 151.563 143.2 146.163 146.165C140.289 149.39 133.414 151.37 125.73 152.056C122.927 151.805 120.236 151.383 117.659 150.793C113.166 149.762 109.03 148.218 105.297 146.168C99.897 143.207 95.1727 139.097 91.2547 133.956C85.8953 126.929 81.88 117.802 79.3263 106.833C77.2295 97.8328 76.114 87.607 76.0064 76.4402C75.8888 64.3555 76.9977 53.7547 77.8478 47.498C82.142 48.553 86.3557 49.0856 90.4315 49.0856C101.711 49.0856 112.215 44.9759 120.811 37.2019C122.746 35.4535 124.379 33.6985 125.73 32.0874C127.077 33.6951 128.714 35.4535 130.646 37.2019C139.238 44.9725 149.741 49.0823 161.025 49.0823H161.028C162.507 49.0823 164.002 49.0119 165.51 48.8712C168.168 48.6267 170.873 48.1679 173.612 47.4946C174.462 53.748 175.567 64.3522 175.453 76.4368Z" fill="#5596FE"/>
<g style="mix-blend-mode:soft-light" opacity="0.15">
<path d="M175.453 76.4364C175.346 87.6033 174.23 97.8291 172.133 106.829C169.58 117.798 165.568 126.922 160.205 133.952C156.287 139.094 151.562 143.2 146.163 146.164C140.289 149.39 133.414 151.369 125.73 152.056C122.927 151.805 120.236 151.383 117.659 150.793C127.951 145.99 139.503 143.562 148.438 136.585C157.5 129.508 162.748 118.461 165.016 107.211C167.281 95.9601 166.854 84.3678 166.414 72.9028C166.109 64.9045 166.018 56.8659 165.51 48.8776C168.168 48.6331 170.873 48.1742 173.612 47.501C174.462 53.7543 175.567 64.3585 175.453 76.4431V76.4364Z" fill="black"/>
</g>
<g style="mix-blend-mode:soft-light" opacity="0.3">
<path d="M148.8 86.2033H146.653V77.6053C146.653 66.9241 137.934 58.2324 127.222 58.2324C116.51 58.2324 107.787 66.9241 107.787 77.6053V86.2033H105.639C103.012 86.2033 100.885 88.3234 100.885 90.9427V124.674C100.885 124.728 100.885 124.785 100.885 124.839C100.972 127.381 103.066 129.414 105.636 129.414H148.797C151.421 129.414 153.552 127.294 153.552 124.674V90.9427C153.552 88.3268 151.425 86.2033 148.797 86.2033H148.8ZM112.528 83.2625V77.6087C112.528 69.5333 119.117 62.9651 127.218 62.9651C135.32 62.9651 141.909 69.5333 141.909 77.6087V86.2066H112.528V83.2658V83.2625Z" fill="black"/>
</g>
<path d="M125.733 55.8076C115.018 55.8076 106.298 64.4993 106.298 75.1805V94.5535H145.165V75.1805C145.165 64.4993 136.445 55.8076 125.733 55.8076ZM140.424 89.8241H111.042V75.1805C111.042 67.1051 117.632 60.537 125.733 60.537C133.834 60.537 140.424 67.1051 140.424 75.1805V89.8241Z" fill="#F3F0FF"/>
<path d="M152.066 88.5143V122.246C152.066 124.862 149.94 126.986 147.312 126.986H104.151C101.58 126.986 99.487 124.952 99.3997 122.41C99.3997 122.357 99.3997 122.303 99.3997 122.246V88.5143C99.3997 85.8984 101.53 83.7749 104.154 83.7749H147.315C149.94 83.7749 152.07 85.8984 152.07 88.5143H152.066Z" fill="#97CEFF"/>
<path d="M132.349 101.38C132.349 97.7388 129.386 94.7847 125.733 94.7847C122.081 94.7847 119.117 97.7388 119.117 101.38C119.117 103.617 120.236 105.59 121.943 106.782V113.709C121.943 115.785 123.65 117.487 125.733 117.487C127.816 117.487 129.523 115.785 129.523 113.709V106.782C131.23 105.59 132.349 103.614 132.349 101.38Z" fill="#374151"/>
<g style="mix-blend-mode:soft-light" opacity="0.3">
<path d="M152.066 95.1128V122.243C152.066 124.859 149.94 126.982 147.312 126.982H104.151C101.58 126.982 99.487 124.949 99.3997 122.407C104.393 122.102 109.675 122.963 114.648 122.963C119.298 123.057 124.097 123.09 128.401 121.332C136.143 118.167 140.434 110.125 145.037 103.158C146.983 100.214 149.291 97.2497 152.066 95.1128Z" fill="black"/>
</g>
<g style="mix-blend-mode:soft-light" opacity="0.8">
<path d="M111.042 80.8345H106.298V83.7752H111.042V80.8345Z" fill="black"/>
</g>
<g style="mix-blend-mode:soft-light" opacity="0.8">
<path d="M145.165 80.8345H140.424V83.7752H145.165V80.8345Z" fill="black"/>
</g>
<path d="M188.642 139.71L247.105 156.575C248.138 156.873 248.737 157.952 248.438 158.985L236.642 199.614L176.303 182.208L188.641 139.713L188.642 139.71Z" fill="#9CA3AF"/>
<path d="M192.244 134.296L205.804 138.208C208.78 139.066 210.498 142.174 209.637 145.14L209.468 145.722L188.642 139.715L189.83 135.626C190.129 134.596 191.212 133.998 192.248 134.297L192.244 134.296Z" fill="#9CA3AF"/>
<path d="M246.313 158.513L189.589 142.15L183.055 164.659L239.778 181.022L246.313 158.513Z" fill="#F3F1FF"/>
<path d="M247.156 152.762L192.191 136.907L185.656 159.416L240.621 175.271L247.156 152.762Z" fill="#EAE8F9"/>
<path d="M249.45 139.332L201.581 125.525L196.686 128.215L187.875 158.571L239.538 173.472L249.45 139.332Z" fill="#F3F1FF"/>
<path d="M196.686 128.215L200.795 129.401L201.581 125.525L196.686 128.215Z" fill="#5596FE"/>
<path opacity="0.3" d="M242.316 146.811L201 134.894C200.483 134.743 200.18 134.197 200.328 133.681C200.479 133.166 201.027 132.864 201.544 133.012L242.861 144.929C243.378 145.079 243.681 145.625 243.533 146.141C243.382 146.657 242.834 146.958 242.316 146.811Z" fill="#CEDDEF"/>
<path opacity="0.3" d="M241.1 151.008L199.784 139.091C199.266 138.94 198.964 138.394 199.112 137.878C199.263 137.362 199.811 137.061 200.328 137.208L241.644 149.125C242.162 149.276 242.464 149.822 242.316 150.338C242.165 150.854 241.617 151.155 241.1 151.008Z" fill="#CEDDEF"/>
<path opacity="0.3" d="M239.88 155.205L198.564 143.287C198.046 143.137 197.744 142.591 197.892 142.075C198.043 141.559 198.591 141.258 199.108 141.405L240.425 153.322C240.942 153.473 241.244 154.019 241.097 154.535C240.945 155.051 240.398 155.352 239.88 155.205Z" fill="#CEDDEF"/>
<path opacity="0.3" d="M238.664 159.398L197.348 147.481C196.83 147.33 196.528 146.784 196.676 146.268C196.827 145.753 197.374 145.451 197.892 145.598L239.208 157.516C239.726 157.666 240.028 158.212 239.88 158.728C239.729 159.244 239.181 159.545 238.664 159.398Z" fill="#CEDDEF"/>
<path opacity="0.3" d="M237.444 163.595L196.128 151.678C195.61 151.527 195.308 150.981 195.456 150.465C195.607 149.949 196.155 149.648 196.672 149.795L237.988 161.712C238.506 161.863 238.808 162.409 238.66 162.925C238.509 163.441 237.962 163.742 237.444 163.595Z" fill="#CEDDEF"/>
<path opacity="0.3" d="M236.228 167.788L194.911 155.871C194.394 155.72 194.092 155.174 194.239 154.658C194.391 154.143 194.938 153.841 195.456 153.989L236.772 165.906C237.29 166.056 237.592 166.602 237.444 167.118C237.293 167.634 236.745 167.935 236.228 167.788Z" fill="#CEDDEF"/>
<path d="M248.277 168.729L244.279 180.003L237.014 200.478C236.671 201.449 235.626 201.985 234.632 201.697L176.871 185.037C175.883 184.753 175.288 183.751 175.507 182.75L176.303 179.132L181.884 153.824C182.123 152.742 183.218 152.079 184.29 152.361L212.152 159.733C212.68 157.914 214.585 156.869 216.41 157.395L246.974 166.21C248.052 166.522 248.644 167.671 248.271 168.726L248.277 168.729Z" fill="#374151"/>
<g style="mix-blend-mode:soft-light" opacity="0.15">
<path d="M244.279 180.003L237.014 200.478C236.671 201.449 235.626 201.985 234.632 201.697L176.871 185.037C175.883 184.753 175.288 183.751 175.507 182.75L176.303 179.132C176.884 179.39 177.459 179.662 178.037 179.909C186.767 183.631 195.926 186.354 205.274 188.012C212.005 189.207 219.054 189.83 225.583 187.804C232.018 185.811 237.874 181.296 244.275 180L244.279 180.003Z" fill="black"/>
</g>
<path d="M7.56367 156.959L15.2181 168.35C15.9439 169.432 15.6549 170.896 14.5696 171.619C13.4842 172.343 12.0192 172.055 11.2901 170.973L3.63566 159.582C2.90987 158.5 3.19885 157.036 4.28417 156.313C5.3695 155.589 6.83788 155.877 7.56367 156.959Z" fill="#374151"/>
<path d="M18.2858 149.799L25.9402 161.19C26.666 162.272 26.377 163.735 25.2917 164.459C24.2064 165.182 22.738 164.894 22.0122 163.812L14.3578 152.421C13.632 151.339 13.921 149.876 15.0063 149.152C16.0917 148.429 17.56 148.717 18.2858 149.799Z" fill="#374151"/>
<path d="M12.4056 152.793L18.6722 162.117C19.398 163.199 19.1091 164.663 18.0237 165.386C16.9384 166.11 15.47 165.822 14.7442 164.74L8.47758 155.415C7.75179 154.333 8.04076 152.87 9.12609 152.146C10.2114 151.423 11.6798 151.711 12.4056 152.793Z" fill="#374151"/>
<g style="mix-blend-mode:soft-light" opacity="0.3">
<path d="M7.56367 156.96L9.41846 159.723C8.09121 160.567 6.75051 161.398 5.44342 162.272L3.63566 159.582C2.90987 158.5 3.19885 157.037 4.28417 156.313C5.3695 155.59 6.83788 155.878 7.56367 156.96Z" fill="black"/>
</g>
<g style="mix-blend-mode:soft-light" opacity="0.3">
<path d="M12.4056 152.793L14.761 156.3C13.4338 157.15 12.1099 157.998 10.7826 158.848L8.47758 155.419C7.75179 154.337 8.04076 152.873 9.12609 152.15C10.2114 151.426 11.6798 151.714 12.4056 152.796V152.793Z" fill="black"/>
</g>
<g style="mix-blend-mode:soft-light" opacity="0.3">
<path d="M18.2858 149.799L20.0029 152.354C18.9847 153.543 17.6373 154.454 16.3 155.312L14.3578 152.421C13.632 151.339 13.921 149.876 15.0063 149.152C16.0917 148.429 17.56 148.717 18.2858 149.799Z" fill="black"/>
</g>
<path d="M51.7259 126.54C52.4517 127.622 52.1628 129.082 51.0774 129.809L3.67932 161.458C2.59399 162.181 1.12561 161.893 0.399823 160.811C-0.325967 159.729 -0.0369946 158.266 1.04833 157.542L48.4464 125.89C49.5318 125.167 51.0002 125.455 51.7259 126.537V126.54Z" fill="#374151"/>
<g style="mix-blend-mode:soft-light" opacity="0.5">
<path d="M51.726 126.54C52.4518 127.622 52.1628 129.082 51.0775 129.809L46.9982 132.532C46.9579 132.452 46.921 132.375 46.8806 132.294C46.343 131.209 45.5803 129.736 44.9956 128.198L48.4465 125.894C49.5318 125.17 51.0002 125.458 51.726 126.54Z" fill="black"/>
</g>
<path d="M64.5617 116.214C62.7506 113.903 60.3985 112.185 57.8347 111.324C54.7031 110.272 51.6285 110.59 49.1756 112.228C46.7227 113.866 45.2577 116.576 45.0427 119.865C44.8444 122.919 45.7718 126.145 47.6535 128.945C49.5352 131.745 52.1762 133.828 55.0861 134.806C55.4053 134.914 55.7245 135.007 56.0438 135.084C58.8394 135.778 61.5409 135.369 63.7418 133.899C66.1947 132.261 67.6631 129.548 67.8748 126.262C68.0731 123.207 67.1457 119.982 65.264 117.182C65.0388 116.847 64.8036 116.522 64.5584 116.211L64.5617 116.214ZM49.7603 120.17C49.8779 118.374 50.6037 116.944 51.8066 116.144C53.0095 115.34 54.6157 115.212 56.3226 115.789C58.2514 116.438 60.0322 117.865 61.3393 119.808C62.6464 121.75 63.2916 123.934 63.1605 125.961C63.0429 127.756 62.3171 129.186 61.1108 129.99C59.9079 130.794 58.3051 130.921 56.5948 130.345C54.6661 129.695 52.8852 128.268 51.5781 126.326C50.271 124.383 49.6259 122.196 49.7569 120.173L49.7603 120.17Z" fill="#374151"/>
<g style="mix-blend-mode:soft-light" opacity="0.5">
<path d="M65.2673 117.185C67.149 119.985 68.0764 123.211 67.8782 126.265C67.6631 129.551 66.1947 132.264 63.7452 133.902C61.5443 135.372 58.8394 135.781 56.0471 135.088C59.9046 133.879 63.2849 131.122 65.1161 127.518C65.6504 126.47 66.0637 125.331 66.0839 124.155C66.1309 121.56 64.2862 119.165 64.518 116.579C64.5281 116.455 64.5449 116.335 64.5651 116.217C64.8104 116.529 65.0456 116.854 65.2707 117.189L65.2673 117.185Z" fill="black"/>
</g>
</g>
<defs>
<clipPath id="clip0_288_5763">
<rect width="267" height="205" fill="white"/>
</clipPath>
</defs>
</svg>
