<svg width="71" height="64" viewBox="0 0 71 64" fill="none" xmlns="http://www.w3.org/2000/svg">
<rect width="71" height="64" rx="20" fill="#C4E0F9"/>
<path d="M22.6597 53.1006L25.4551 46.6722C24.9622 46.2901 24.4869 45.917 24.0291 45.5529C23.5714 45.1888 23.131 44.7973 22.7079 44.3783C22.4284 44.4852 22.1578 44.5661 21.8962 44.6211C21.6345 44.676 21.3454 44.7038 21.0287 44.7045C19.8728 44.712 18.881 44.3072 18.0532 43.4902C17.2255 42.6731 16.8071 41.686 16.7982 40.5287C16.7936 39.8282 16.9386 39.1876 17.2333 38.607C17.528 38.0264 17.936 37.5425 18.4575 37.1552C18.1721 36.3514 17.9741 35.5387 17.8637 34.7169C17.7532 33.8952 17.695 33.0283 17.6891 32.1162C17.6832 31.2041 17.73 30.3372 17.8298 29.5155C17.9295 28.6938 18.1168 27.8778 18.3918 27.0676C17.8639 26.6857 17.4495 26.2071 17.1487 25.6318C16.848 25.0565 16.6946 24.4179 16.6886 23.716C16.6811 22.5601 17.0865 21.5683 17.905 20.7405C18.7235 19.9127 19.7099 19.4943 20.8644 19.4854C21.1796 19.4834 21.4691 19.5081 21.7329 19.5596C21.9966 19.6111 22.2682 19.6878 22.5477 19.7897C23.6954 18.5212 25.0111 17.4618 26.495 16.6115C27.9788 15.7611 29.5593 15.1203 31.2365 14.6891C31.4047 13.6371 31.881 12.7583 32.6652 12.0526C33.4495 11.347 34.3663 10.9907 35.4157 10.9839C36.4651 10.977 37.3872 11.3304 38.1821 12.044C38.977 12.7576 39.4639 13.621 39.6428 14.6343C41.3268 15.0436 42.9162 15.6554 44.4109 16.4695C45.9056 17.2836 47.2341 18.2992 48.3966 19.5162C48.6761 19.4093 48.9383 19.3291 49.1831 19.2757C49.428 19.2222 49.6905 19.1939 49.9707 19.1907C51.1266 19.1831 52.1191 19.5886 52.9483 20.4071C53.7775 21.2255 54.1952 22.212 54.2013 23.3665C54.2058 24.067 54.0698 24.69 53.7931 25.2354C53.5165 25.7809 53.1342 26.2471 52.6463 26.6342C52.932 27.473 53.1302 28.3299 53.241 29.2049C53.3518 30.0799 53.4102 30.9727 53.4161 31.8834C53.422 32.7941 53.3753 33.6792 53.2758 34.5387C53.1763 35.3982 52.9891 36.231 52.7141 37.0371C53.207 37.4192 53.5953 37.8811 53.8791 38.4229C54.1628 38.9647 54.307 39.5851 54.3115 40.2843C54.3191 41.4401 53.9143 42.432 53.0972 43.2597C52.2802 44.0875 51.293 44.5059 50.1357 44.5148C49.8555 44.5166 49.5926 44.4917 49.3471 44.4401C49.1016 44.3885 48.8384 44.3117 48.5575 44.2099C48.1399 44.6329 47.7139 45.0469 47.2794 45.4519C46.8448 45.8568 46.3654 46.2544 45.8412 46.6445L48.6143 52.9314L44.7264 52.9568L42.6997 48.3463C42.2107 48.5596 41.7391 48.747 41.2848 48.9083C40.8305 49.0695 40.3585 49.2036 39.8688 49.3105C39.7002 50.3274 39.2239 51.1978 38.4398 51.9217C37.6557 52.6456 36.7396 53.0102 35.6916 53.0156C34.6436 53.0211 33.7223 52.6768 32.9275 51.9828C32.1328 51.2888 31.6451 50.4163 31.4645 49.3653C30.9384 49.2636 30.4388 49.1359 29.9656 48.982C29.4924 48.8282 29.0093 48.6471 28.5161 48.4387L26.5497 53.0752L22.6597 53.1006ZM26.5931 43.9326L29.8027 36.5558C29.3082 35.9286 28.9183 35.2305 28.6331 34.4618C28.3479 33.693 28.2025 32.8883 28.197 32.0477C28.184 30.0512 28.8999 28.3211 30.3448 26.8573C31.7896 25.3935 33.5096 24.6558 35.5047 24.6442C37.4998 24.6326 39.2299 25.3485 40.6951 26.7919C42.1603 28.2353 42.898 29.9553 42.9082 31.9518C42.9136 32.7925 42.7698 33.6166 42.4766 34.4241C42.1834 35.2317 41.7769 35.9524 41.257 36.5863L44.5617 43.8156C44.8751 43.5333 45.1803 43.2777 45.4773 43.0488C45.7742 42.8199 46.0611 42.5462 46.3378 42.2277C46.1609 41.9487 46.0454 41.6433 45.9914 41.3115C45.9374 40.9798 45.9086 40.6557 45.9052 40.339C45.8979 39.2182 46.2769 38.2524 47.0422 37.4418C47.8075 36.6312 48.7504 36.1872 49.8708 36.1098C50.0764 35.4079 50.2295 34.7155 50.3301 34.0325C50.4308 33.3495 50.4787 32.6395 50.4739 31.9025C50.4691 31.1656 50.4118 30.4395 50.3021 29.7242C50.1923 29.009 50.0301 28.3004 49.8153 27.5984C48.694 27.5356 47.7455 27.104 46.9696 26.3034C46.1938 25.5028 45.8022 24.5421 45.7949 23.4212C45.7929 23.106 45.835 22.7996 45.9213 22.502C46.0077 22.2044 46.1018 21.9144 46.2036 21.6322C45.1812 20.623 44.0548 19.7722 42.8243 19.0796C41.5938 18.3871 40.2943 17.8526 38.9257 17.4762C38.5443 18.0742 38.057 18.5418 37.4637 18.8792C36.8704 19.2165 36.206 19.3868 35.4704 19.3902C34.7349 19.3936 34.0683 19.2312 33.4707 18.9031C32.8731 18.5749 32.3797 18.1143 31.9905 17.5214C30.5569 17.9161 29.2295 18.4767 28.0083 19.2035C26.787 19.9302 25.6719 20.8216 24.663 21.8776C24.7699 22.1571 24.8685 22.4458 24.9587 22.7437C25.0489 23.0415 25.0943 23.3474 25.095 23.6612C25.1023 24.7821 24.7407 25.7393 24.0103 26.5329C23.2799 27.3264 22.3546 27.7787 21.2344 27.8897C21.0288 28.5916 20.8757 29.2848 20.7751 29.9692C20.6745 30.6536 20.6265 31.3628 20.6313 32.097C20.6361 32.8312 20.6933 33.5405 20.8028 34.2249C20.9124 34.9093 21.0745 35.5997 21.2892 36.2961C22.4105 36.3588 23.3415 36.7906 24.0824 37.5914C24.8232 38.3922 25.1972 39.3531 25.2045 40.4739C25.2066 40.7892 25.1826 41.0962 25.1328 41.3949C25.0829 41.6937 24.9706 41.983 24.7958 42.263C25.0781 42.5764 25.3693 42.8639 25.6694 43.1253C25.9696 43.3868 26.2775 43.6559 26.5931 43.9326ZM29.7572 45.6984C30.1436 45.8711 30.539 46.0261 30.9434 46.1636C31.3479 46.3011 31.7599 46.421 32.1795 46.5233C32.5609 45.9254 33.0482 45.4584 33.6415 45.1225C34.2348 44.7866 34.8992 44.6155 35.6348 44.6093C36.3703 44.6031 37.0369 44.7655 37.6345 45.0965C38.2322 45.4275 38.7256 45.888 39.1147 46.4781C39.5343 46.3703 39.9272 46.2452 40.2934 46.1027C40.6596 45.9602 41.0354 45.8001 41.421 45.6224L38.3292 38.8121C37.91 38.99 37.473 39.1246 37.0183 39.2158C36.5635 39.307 36.0909 39.3535 35.6005 39.3553C35.0751 39.3588 34.5753 39.3095 34.1011 39.2075C33.6268 39.1055 33.1796 38.9508 32.7593 38.7433L29.7572 45.6984ZM35.5731 35.1522C36.4138 35.1467 37.1474 34.8442 37.774 34.2446C38.4006 33.645 38.7109 32.8899 38.705 31.9792C38.6995 31.1386 38.3795 30.4051 37.7449 29.7787C37.1103 29.1524 36.3727 28.8419 35.5321 28.8474C34.6214 28.8533 33.8704 29.1735 33.279 29.8078C32.6877 30.4422 32.3947 31.1797 32.4002 32.0203C32.4062 32.931 32.7088 33.6821 33.3081 34.2737C33.9074 34.8653 34.6625 35.1581 35.5731 35.1522Z" fill="#5596FE"/>
</svg>
