<svg width="71" height="64" viewBox="0 0 71 64" fill="none" xmlns="http://www.w3.org/2000/svg">
<rect width="71" height="64" rx="20" fill="#C4E0F9"/>
<g clip-path="url(#clip0_557_638)">
<path d="M18.4761 37.1957C18.4761 38.4926 18.7871 39.6887 19.4091 40.784C20.3421 42.4268 20.8793 42.7439 21.9538 43.3779C23.0282 44.012 24.1874 44.3291 25.4456 44.3291H40.7558C42.014 44.3291 43.1874 44.012 44.2618 43.3779C45.3362 42.7439 46.1985 41.8792 46.8206 40.784C47.4426 39.6887 47.7677 38.4926 47.7677 37.1957C47.7677 36.2445 47.5698 35.279 47.174 34.3135C48.2484 32.9877 48.7856 31.3881 48.7856 29.5579C48.7856 28.5347 48.5877 27.5547 48.206 26.618C47.8243 25.6813 47.2871 24.8887 46.6227 24.2114C45.9582 23.5341 45.1807 22.9865 44.2618 22.5974C43.3429 22.1939 42.3816 22.0065 41.3779 22.0065C39.2856 22.0065 37.4619 22.8424 35.8927 24.514C34.8042 23.88 33.5319 23.5629 32.0758 23.5629C30.0825 23.5629 28.3295 24.197 26.8027 25.4508C25.2995 26.6605 24.2592 28.3685 23.8622 30.2784C22.2789 30.6531 20.9924 31.4745 19.9887 32.7715C18.985 34.0685 18.4761 35.5384 18.4761 37.1957ZM20.8935 37.1957C20.8935 35.9851 21.2893 34.9475 22.081 34.0685C22.8727 33.1894 23.8622 32.685 25.0497 32.5409L25.7566 32.4977C25.9262 32.4977 26.0252 32.4112 26.0252 32.2383L26.1241 31.4601C26.3221 29.9037 26.9865 28.5923 28.1174 27.5547C29.2484 26.5027 30.5773 25.984 32.0899 25.984C33.645 25.984 35.0021 26.5172 36.1472 27.5692C37.2713 28.5608 37.967 29.9638 38.084 31.4745L38.1829 32.3104C38.2112 32.4689 38.3102 32.5553 38.4798 32.5553H40.7558C41.9999 32.5553 43.0743 33.0165 43.9791 33.9388C44.8838 34.8611 45.3362 35.9419 45.3362 37.2101C45.3362 38.5215 44.8838 39.6311 43.9932 40.5534C43.1026 41.4757 42.014 41.9368 40.77 41.9368H25.4456C24.2015 41.9368 23.1413 41.4757 22.2365 40.539C21.3459 39.6023 20.8935 38.4926 20.8935 37.1957ZM30.3652 19.5135C30.3652 19.8593 30.4783 20.1619 30.7045 20.4213L31.6375 21.3436C31.991 21.6174 32.2878 21.7327 32.5423 21.7039C32.8392 21.7039 33.0936 21.5742 33.3198 21.3292C33.546 21.0842 33.6591 20.7816 33.6591 20.4358C33.6591 20.0899 33.5319 19.8017 33.2915 19.5855L32.4575 18.6344C32.2229 18.4127 31.915 18.2892 31.5951 18.2885C31.2558 18.2885 30.959 18.4038 30.7186 18.6488C30.4783 18.8794 30.3652 19.1676 30.3652 19.5135ZM37.9143 25.8975C38.8898 24.932 40.049 24.4564 41.3779 24.4564C42.7774 24.4564 43.9649 24.9464 44.9404 25.9407C45.9158 26.9351 46.4106 28.1312 46.4106 29.5579C46.4106 30.4513 46.1703 31.3448 45.6896 32.2095C44.3183 30.826 42.6785 30.1343 40.7558 30.1343H40.3035C39.95 28.5635 39.1584 27.1512 37.9143 25.8975ZM40.2186 18.2885C40.2186 18.6632 40.3317 18.9514 40.5438 19.182C40.7558 19.4126 41.0386 19.5135 41.3779 19.5135C41.7454 19.5135 42.0282 19.3982 42.2543 19.182C42.4805 18.9514 42.5795 18.6632 42.5795 18.2885V15.3343C42.5795 14.9884 42.4664 14.7146 42.2402 14.484C42.014 14.2535 41.7313 14.1526 41.3779 14.1526C41.0386 14.1526 40.77 14.2679 40.5438 14.484C40.3176 14.7002 40.2186 14.9884 40.2186 15.3343V18.2885ZM48.0222 21.5886C48.0222 21.9633 48.1212 22.2515 48.3332 22.4821C48.6301 22.7127 48.927 22.828 49.2097 22.828C49.4642 22.828 49.7469 22.7127 50.0438 22.4821L52.0654 20.4213C52.2915 20.1619 52.4046 19.8593 52.4046 19.499C52.4046 19.1532 52.2915 18.865 52.0654 18.6344C51.957 18.5216 51.827 18.4327 51.6835 18.3732C51.5401 18.3137 51.3861 18.2849 51.2313 18.2885C50.892 18.2885 50.6234 18.4038 50.4113 18.6344L48.3332 20.6951C48.1212 20.969 48.0222 21.2572 48.0222 21.5886ZM49.139 38.6512C49.139 38.997 49.2521 39.2996 49.4924 39.559L50.4113 40.4669C50.6234 40.6975 50.892 40.8128 51.2313 40.8128C51.5706 40.8128 51.8533 40.6975 52.0795 40.4525C52.1914 40.334 52.279 40.194 52.3373 40.0406C52.3955 39.8872 52.4232 39.7235 52.4188 39.559C52.4188 39.242 52.3057 38.9538 52.0795 38.7232L51.1606 37.7865C51.0565 37.6759 50.9313 37.5882 50.7928 37.5287C50.6542 37.4692 50.5051 37.4392 50.3548 37.4406C50.0155 37.4406 49.7328 37.5559 49.5066 37.7865C49.2663 38.0171 49.139 38.3053 49.139 38.6512ZM51.2171 29.5579C51.2171 29.8893 51.3444 30.1631 51.5847 30.3937C51.8109 30.6243 52.1078 30.7396 52.4471 30.7396H55.331C55.6561 30.7396 55.9247 30.6243 56.1509 30.4081C56.3771 30.1919 56.4761 29.9037 56.4761 29.5579C56.4761 29.212 56.363 28.9238 56.1509 28.6932C55.9389 28.4626 55.6561 28.3329 55.331 28.3329H52.4471C52.1078 28.3329 51.825 28.4482 51.5847 28.6932C51.4672 28.8028 51.3736 28.9365 51.3103 29.0855C51.247 29.2345 51.2152 29.3955 51.2171 29.5579Z" fill="#5596FE"/>
</g>
<defs>
<clipPath id="clip0_557_638">
<rect width="38" height="38" fill="white" transform="translate(16.5 13)"/>
</clipPath>
</defs>
</svg>
