<svg width="71" height="64" viewBox="0 0 71 64" fill="none" xmlns="http://www.w3.org/2000/svg">
<rect width="71" height="64" rx="20" fill="#C4E0F9"/>
<path d="M27.792 42.0821C28.2933 41.607 28.8676 41.0202 29.5146 40.3214C30.1617 39.6226 30.7882 38.8769 31.394 38.0841C31.9999 37.2914 32.5013 36.4802 32.8982 35.6505C33.2951 34.8209 33.493 34.0224 33.492 33.255C33.492 31.5397 32.9578 30.1215 31.8896 29.0005C30.8214 27.8795 29.4555 27.3185 27.792 27.3175C26.1284 27.3164 24.763 27.8774 23.6959 29.0005C22.6287 30.1237 22.0941 31.5418 22.092 33.255C22.092 34.0202 22.2899 34.8188 22.6857 35.6505C23.0815 36.4823 23.5829 37.2935 24.1899 38.0841C24.7968 38.8747 25.4238 39.62 26.0709 40.3198C26.7179 41.0196 27.2916 41.607 27.792 42.0821ZM22.092 47.9008C21.6433 47.9008 21.2676 47.7488 20.9646 47.4448C20.6617 47.1408 20.5097 46.765 20.5086 46.3175C20.5076 45.8699 20.6596 45.4941 20.9646 45.1901C21.2697 44.8861 21.6455 44.7341 22.092 44.7341H25.9711C25.2322 44.048 24.4538 43.2695 23.6357 42.3987C22.8177 41.5279 22.0656 40.5911 21.3795 39.5883C20.6933 38.5855 20.1128 37.5564 19.6378 36.5008C19.1628 35.4452 18.9253 34.3633 18.9253 33.255C18.9253 30.6689 19.7697 28.505 21.4586 26.7633C23.1475 25.0216 25.2586 24.1508 27.792 24.1508C30.3253 24.1508 32.4364 25.0216 34.1253 26.7633C35.8142 28.505 36.6586 30.6689 36.6586 33.255C36.6586 34.3633 36.4211 35.4452 35.9461 36.5008C35.4711 37.5564 34.8906 38.5855 34.2045 39.5883C33.5183 40.5911 32.7663 41.5279 31.9482 42.3987C31.1302 43.2695 30.3517 44.048 29.6128 44.7341H50.592C51.0406 44.7341 51.4169 44.8861 51.7209 45.1901C52.0249 45.4941 52.1763 45.8699 52.1753 46.3175C52.1742 46.765 52.0222 47.1413 51.7193 47.4464C51.4163 47.7514 51.0406 47.9029 50.592 47.9008H22.092ZM41.092 40.1425C40.8281 40.1425 40.5774 40.0834 40.3399 39.9651C40.1024 39.8469 39.9045 39.6553 39.7461 39.3904L38.5982 37.5695C38.3607 37.2001 38.3079 36.8043 38.4399 36.382C38.5718 35.9598 38.7829 35.6036 39.0732 35.3133C39.3635 35.023 39.7002 34.8842 40.0834 34.8969C40.4665 34.9095 40.8027 35.1407 41.092 35.5904L41.844 34.4029C41.976 34.1654 42.1607 33.9807 42.3982 33.8487C42.6357 33.7168 42.8996 33.6508 43.1899 33.6508H49.0086V19.4008H33.1753C33.1753 19.8494 33.0233 20.2257 32.7193 20.5297C32.4153 20.8337 32.0395 20.9852 31.592 20.9841C31.1697 20.9841 30.8003 20.8195 30.4836 20.4901C30.167 20.1608 30.0086 19.7977 30.0086 19.4008C30.0086 18.53 30.319 17.7847 30.9396 17.1651C31.5603 16.5455 32.3055 16.2352 33.1753 16.2341H49.0086C49.8795 16.2341 50.6252 16.5445 51.2459 17.1651C51.8665 17.7858 52.1763 18.531 52.1753 19.4008V33.6508C52.1753 34.5216 51.8655 35.2674 51.2459 35.888C50.6263 36.5087 49.8805 36.8185 49.0086 36.8175H44.0607L42.4378 39.43C42.2795 39.6939 42.0815 39.8786 41.844 39.9841C41.6065 40.0897 41.3558 40.1425 41.092 40.1425ZM27.792 35.2341C28.4517 35.2341 29.0127 35.0035 29.475 34.5422C29.9374 34.0809 30.168 33.5199 30.167 32.8591C30.1659 32.1984 29.9353 31.6379 29.475 31.1776C29.0148 30.7174 28.4538 30.4862 27.792 30.4841C27.1301 30.482 26.5696 30.7132 26.1105 31.1776C25.6513 31.6421 25.4201 32.2026 25.417 32.8591C25.4138 33.5157 25.645 34.0767 26.1105 34.5422C26.576 35.0077 27.1365 35.2384 27.792 35.2341ZM41.2503 28.5445L43.6649 30.0091C43.8232 30.1147 43.9752 30.1147 44.1209 30.0091C44.2665 29.9036 44.3125 29.7584 44.2586 29.5737L43.6253 26.8425L45.7628 24.982C45.8947 24.8501 45.9343 24.705 45.8815 24.5466C45.8288 24.3883 45.71 24.2959 45.5253 24.2695L42.7149 24.032L41.6065 21.4591C41.5538 21.3008 41.435 21.2216 41.2503 21.2216C41.0656 21.2216 40.9468 21.3008 40.894 21.4591L39.7857 24.032L36.9753 24.2695C36.7906 24.2959 36.6718 24.3883 36.619 24.5466C36.5663 24.705 36.6058 24.8501 36.7378 24.982L38.8753 26.8425L38.242 29.5737C38.1892 29.7584 38.2356 29.9036 38.3813 30.0091C38.527 30.1147 38.6784 30.1147 38.8357 30.0091L41.2503 28.5445Z" fill="#5596FE"/>
</svg>
