<svg width="44" height="44" viewBox="0 0 44 44" fill="none" xmlns="http://www.w3.org/2000/svg">
<rect width="43.2973" height="43.2973" rx="21.6487" fill="#F3F4F6"/>
<path d="M14.4551 12.1145C16.3649 11.2415 18.8931 11.4995 21.249 13.9475L21.6484 14.3625L22.0488 13.9475C24.4046 11.4996 26.9329 11.2421 28.8428 12.1155C30.7874 13.005 32.1953 15.109 32.1953 17.5999C32.1953 20.1255 31.1583 22.069 29.6963 23.7151C28.5856 24.9656 27.2556 26.0193 25.957 27.0217L24.6777 28.0129C24.0967 28.4719 23.5604 28.8889 23.0391 29.1936C22.5176 29.4984 22.0626 29.6584 21.6484 29.6584C21.2344 29.6584 20.7794 29.4985 20.2578 29.1936C19.7363 28.8888 19.2004 28.472 18.6191 28.0139H18.6201C16.954 26.7001 15.0828 25.3819 13.6016 23.7141C12.1395 22.0679 11.1016 20.1249 11.1016 17.5989C11.1016 15.1072 12.5104 13.0035 14.4551 12.1145Z" stroke="#9CA3AF" stroke-width="1.11019"/>
</svg>
