<svg width="71" height="64" viewBox="0 0 71 64" fill="none" xmlns="http://www.w3.org/2000/svg">
<rect width="71" height="64" rx="20" fill="#C4E0F9"/>
<path d="M32.4917 23.2947C32.84 21.4207 33.7925 19.7123 35.2036 18.4307C36.6147 17.1492 38.4066 16.3651 40.3054 16.1982C40.1945 17.4664 40.3626 18.7435 40.798 19.9398C41.2334 21.1361 41.9255 22.2224 42.8257 23.1226C43.7258 24.0228 44.8122 24.7149 46.0085 25.1503C47.2047 25.5857 48.4818 25.7538 49.75 25.6428C49.6432 26.8701 49.2772 28.0607 48.6762 29.1361C48.0752 30.2115 47.2529 31.1471 46.2635 31.8812" stroke="#5596FE" stroke-width="2" stroke-linecap="square"/>
<path d="M19.6665 39.2009C19.6665 42.2362 22.222 44.6951 25.3728 44.6951H41.0637C45.0046 44.6951 48.1982 41.6203 48.1982 37.8282C48.1982 35.6289 47.1247 33.6719 45.4558 32.4148C44.1569 31.4407 42.5698 30.9286 40.9465 30.9597C40.386 27.7376 37.8843 25.1489 34.6385 24.3477C33.9407 24.1755 33.2245 24.0889 32.5058 24.0896C27.7779 24.0896 23.9463 27.7804 23.9463 32.3324C23.9463 32.8497 23.9938 33.3542 24.0888 33.8461C21.557 34.4066 19.6665 36.5916 19.6665 39.2009Z" stroke="#5596FE" stroke-width="2" stroke-linecap="square"/>
</svg>
