<svg width="17" height="17" viewBox="0 0 17 17" fill="none" xmlns="http://www.w3.org/2000/svg">
<path d="M8.32634 11.9865L5.44679 13.7211C5.31958 13.8021 5.18659 13.8368 5.04782 13.8252C4.90905 13.8136 4.78762 13.7674 4.68354 13.6864C4.57946 13.6055 4.49851 13.5044 4.44069 13.3832C4.38286 13.262 4.3713 13.126 4.40599 12.9752L5.16925 9.69669L2.61928 7.49366C2.50364 7.38958 2.43148 7.27093 2.4028 7.13771C2.37412 7.00448 2.38267 6.8745 2.42847 6.74775C2.47427 6.62101 2.54365 6.51693 2.63663 6.43551C2.72961 6.3541 2.85682 6.30206 3.01826 6.27939L6.38351 5.9845L7.68452 2.89679C7.74234 2.75802 7.83208 2.65394 7.95374 2.58455C8.07539 2.51516 8.1996 2.48047 8.32634 2.48047C8.45309 2.48047 8.57729 2.51516 8.69895 2.58455C8.82061 2.65394 8.91035 2.75802 8.96817 2.89679L10.2692 5.9845L13.6344 6.27939C13.7963 6.30252 13.9235 6.35456 14.0161 6.43551C14.1086 6.51646 14.178 6.62054 14.2242 6.74775C14.2705 6.87496 14.2793 7.00518 14.2506 7.1384C14.2219 7.27162 14.1495 7.39004 14.0334 7.49366L11.4834 9.69669L12.2467 12.9752C12.2814 13.1256 12.2698 13.2615 12.212 13.3832C12.1542 13.5049 12.0732 13.6059 11.9691 13.6864C11.8651 13.7669 11.7436 13.8132 11.6049 13.8252C11.4661 13.8372 11.3331 13.8025 11.2059 13.7211L8.32634 11.9865Z" fill="#F8BD00"/>
</svg>
