<svg width="71" height="64" viewBox="0 0 71 64" fill="none" xmlns="http://www.w3.org/2000/svg">
<rect width="71" height="64" rx="20" fill="#C4E0F9"/>
<g clip-path="url(#clip0_557_627)">
<path d="M47.1635 25.0224C46.6446 22.3091 45.196 19.8617 43.0672 18.1013C40.9383 16.341 38.2623 15.3779 35.4999 15.3779C32.7375 15.3779 30.0615 16.341 27.9326 18.1013C25.8037 19.8617 24.3551 22.3091 23.8362 25.0224C21.6446 25.4125 19.6786 26.6096 18.326 28.3778C16.9735 30.1459 16.3325 32.3567 16.5296 34.5741C16.7266 36.7915 17.7474 38.8545 19.3906 40.3565C21.0337 41.8584 23.18 42.6901 25.4061 42.6876H25.9999V40.3126H25.4061C23.711 40.317 22.0807 39.6617 20.8602 38.4855C19.6397 37.3092 18.9247 35.7042 18.8665 34.0101C18.8083 32.316 19.4116 30.6657 20.5485 29.4085C21.6855 28.1513 23.267 27.3857 24.9584 27.2739L25.9512 27.2062L26.0581 26.217C26.3115 23.8898 27.4154 21.7382 29.1579 20.1751C30.9005 18.612 33.159 17.7475 35.4999 17.7475C37.8408 17.7475 40.0992 18.612 41.8418 20.1751C43.5844 21.7382 44.6883 23.8898 44.9417 26.217L45.0486 27.2062L46.0413 27.275C47.7293 27.3913 49.3061 28.1587 50.4393 29.4151C51.5725 30.6716 52.1734 32.3191 52.1153 34.0101C52.0573 35.7011 51.3448 37.3034 50.1281 38.4792C48.9114 39.655 47.2856 40.3124 45.5936 40.3126H44.9999V42.6876H45.5936C47.8198 42.6901 49.966 41.8584 51.6092 40.3565C53.2523 38.8545 54.2731 36.7915 54.4702 34.5741C54.6672 32.3567 54.0263 30.1459 52.6737 28.3778C51.3212 26.6096 49.3552 25.4125 47.1635 25.0224Z" fill="#5596FE"/>
<path d="M43.8125 39.125V36.75H41.3176C41.1635 36.0069 40.8684 35.3003 40.4483 34.6683L42.2177 32.8989L40.5386 31.2198L38.7692 32.9892C38.1372 32.5691 37.4306 32.274 36.6875 32.1199V29.625H34.3125V32.1199C33.5694 32.274 32.8628 32.5691 32.2308 32.9892L30.4614 31.2198L28.7823 32.8989L30.5517 34.6683C30.1316 35.3003 29.8365 36.0069 29.6824 36.75H27.1875V39.125H29.6824C29.8365 39.8681 30.1316 40.5747 30.5517 41.2067L28.7823 42.9761L30.4614 44.6552L32.2308 42.8858C32.8628 43.3059 33.5694 43.601 34.3125 43.7551V46.25H36.6875V43.7551C37.4306 43.601 38.1372 43.3059 38.7692 42.8858L40.5386 44.6552L42.2177 42.9761L40.4483 41.2067C40.8684 40.5747 41.1635 39.8681 41.3176 39.125H43.8125ZM35.5 41.5C34.7954 41.5 34.1066 41.2911 33.5208 40.8996C32.9349 40.5082 32.4783 39.9518 32.2087 39.3008C31.939 38.6498 31.8685 37.9335 32.006 37.2425C32.1434 36.5514 32.4827 35.9167 32.9809 35.4184C33.4792 34.9202 34.1139 34.5809 34.805 34.4435C35.496 34.306 36.2123 34.3765 36.8633 34.6462C37.5143 34.9158 38.0707 35.3724 38.4621 35.9583C38.8536 36.5441 39.0625 37.2329 39.0625 37.9375C39.0616 38.882 38.6859 39.7876 38.018 40.4555C37.3501 41.1234 36.4445 41.4991 35.5 41.5Z" fill="#5596FE"/>
</g>
<defs>
<clipPath id="clip0_557_627">
<rect width="38" height="38" fill="white" transform="translate(16.5 13)"/>
</clipPath>
</defs>
</svg>
